<?xml version="1.0" standalone="no"?>
<!DOCTYPE svg PUBLIC "-//W3C//DTD SVG 1.1//EN" "http://www.w3.org/Graphics/SVG/1.1/DTD/svg11.dtd" >
<svg xmlns="http://www.w3.org/2000/svg">
<metadata></metadata>
<defs>
<font id="peugeotlight" horiz-adv-x="1183" >
<font-face units-per-em="2048" ascent="1638" descent="-410" />
<missing-glyph horiz-adv-x="499" />
<glyph horiz-adv-x="0" />
<glyph horiz-adv-x="682" />
<glyph unicode=" "  horiz-adv-x="499" />
<glyph unicode="&#x09;" horiz-adv-x="499" />
<glyph unicode="&#xa0;" horiz-adv-x="499" />
<glyph unicode="!" horiz-adv-x="573" d="M217 0v137h139v-137h-139zM223 1384h127l-18 -1013h-92z" />
<glyph unicode="&#x22;" horiz-adv-x="808" d="M201 1384h102l-8 -489h-88zM506 1384h102l-6 -489h-88z" />
<glyph unicode="#" horiz-adv-x="1200" d="M57 406l17 88h209l73 417h-206l16 86h207l69 387h93l-70 -387h377l69 387h93l-70 -387h209l-15 -88h-210l-76 -415h209l-15 -88h-209l-73 -406h-92l73 406h-377l-73 -406h-92l73 406h-209zM375 494h375l75 417h-376z" />
<glyph unicode="$" d="M170 113v112q176 -104 381 -104q55 0 102.5 7.5t91.5 26.5t74.5 48t49 74t18.5 102q0 75 -39.5 127.5t-102.5 81.5t-139.5 52t-152.5 49.5t-139 63t-102.5 102.5t-39.5 159q0 80 31 145t84.5 107.5t120 67.5t143.5 32v225h88v-223q179 -5 322 -82v-108q-168 84 -359 84 q-61 0 -114.5 -12.5t-100 -40t-73.5 -76.5t-27 -115q0 -56 24.5 -99t65.5 -70.5t94.5 -49t112.5 -39.5t118 -37.5t112.5 -48t94.5 -65t65.5 -94t24.5 -130.5q0 -84 -28.5 -150t-79 -108.5t-113.5 -68t-139 -35.5v-248h-88v241q-105 0 -206.5 26t-174.5 71z" />
<glyph unicode="%" horiz-adv-x="1800" d="M121 977q0 200 81.5 316t227.5 116t226.5 -116t80.5 -316t-80.5 -316t-226.5 -116t-227.5 116t-81.5 316zM221 977q0 -336 209 -336t209 336t-209 336t-209 -336zM467 0l766 1384h102l-766 -1384h-102zM1061 410q0 200 81.5 316t227.5 116t226.5 -116t80.5 -316 q0 -201 -80.5 -317t-226.5 -116t-227.5 116.5t-81.5 316.5zM1161 410q0 -336 209 -336t209 336q0 335 -209 335t-209 -335z" />
<glyph unicode="&#x26;" horiz-adv-x="1363" d="M121 403q0 154 81 243.5t216 123.5q-106 32 -175 104t-69 191q0 87 38 154.5t101.5 108t141 61t163.5 20.5q209 0 361 -84v-108q-162 90 -363 90q-142 0 -231.5 -61t-89.5 -179q0 -123 95.5 -183.5t244.5 -60.5h70v-102h-62q-179 0 -290 -82t-111 -238 q0 -158 103.5 -240.5t293.5 -82.5q184 0 290.5 117.5t106.5 310.5v57h-219v96h531v-96h-199v-55q0 -111 -34.5 -207.5t-98.5 -169.5t-163 -114.5t-220 -41.5q-240 0 -376 117.5t-136 310.5z" />
<glyph unicode="'" horiz-adv-x="503" d="M201 1384h102l-8 -489h-88z" />
<glyph unicode="(" horiz-adv-x="555" d="M137 532q0 147 23 280t67 248t89.5 203.5t109.5 190.5h100q-51 -94 -82.5 -154t-76 -162t-69.5 -187t-43.5 -196.5t-18.5 -222.5t19 -222.5t43.5 -196t69 -186.5t75.5 -162t83 -154h-100q-64 102 -109.5 190t-90 203.5t-67 248t-22.5 279.5z" />
<glyph unicode=")" horiz-adv-x="555" d="M29 -389q52 94 83 154t75.5 162t69 186.5t43.5 196t19 222.5t-18.5 222.5t-43.5 196.5t-69.5 187t-76 162t-82.5 154h100q64 -102 109.5 -190.5t89.5 -203.5t67 -248t23 -280t-22.5 -279.5t-67 -248t-90 -203.5t-109.5 -190h-100z" />
<glyph unicode="*" horiz-adv-x="747" d="M96 1145l23 86l217 -74l-8 227h88l-6 -227l217 74l22 -86l-225 -58l149 -190l-67 -63l-133 204l-135 -204l-66 63l150 190z" />
<glyph unicode="+" d="M115 586v102h430v410h94v-410h430v-102h-430v-410h-94v410h-430z" />
<glyph unicode="," horiz-adv-x="503" d="M43 -305q95 58 138.5 130t43.5 167q0 58 -24 145h112q21 -64 21 -145q0 -244 -248 -383z" />
<glyph unicode="-" horiz-adv-x="796" d="M166 543v110h467v-110h-467z" />
<glyph unicode="." horiz-adv-x="503" d="M182 0v137h140v-137h-140z" />
<glyph unicode="/" horiz-adv-x="669" d="M0 0l573 1384h97l-572 -1384h-98z" />
<glyph unicode="0" d="M109 692q0 351 131.5 534t353.5 183q220 0 351.5 -183t131.5 -534t-131.5 -534t-351.5 -183q-222 0 -353.5 183t-131.5 534zM229 694q0 -185 40 -322t123.5 -215.5t201.5 -78.5q175 0 268.5 167t93.5 449q0 185 -40 321t-122.5 214t-199.5 78q-177 0 -271 -166t-94 -447z " />
<glyph unicode="1" d="M350 1284v100h373v-1384h-113v1284h-260z" />
<glyph unicode="2" d="M152 0v100l423 406q100 96 156 163.5t91.5 153t35.5 181.5q0 150 -88 226.5t-231 76.5q-197 0 -346 -129v129q148 102 352 102q92 0 169 -24t136.5 -72t93 -126.5t33.5 -180.5q0 -91 -24 -171t-73.5 -152.5t-103.5 -131t-135 -131.5l-350 -320h706v-100h-845z" />
<glyph unicode="3" d="M170 61v109q176 -92 352 -92q170 0 265.5 83.5t95.5 239.5q0 89 -30.5 152.5t-84.5 97t-114.5 48t-133.5 14.5q-46 0 -143 -13v95l479 489h-672v100h803v-92l-471 -487q7 0 21.5 1t21.5 1q90 0 169.5 -25t141.5 -73.5t98 -127t36 -178.5q0 -199 -131 -313.5t-351 -114.5 q-193 0 -352 86z" />
<glyph unicode="4" d="M96 371v94l697 919h106v-913h180v-100h-180v-371h-106v371h-697zM217 471h576v762z" />
<glyph unicode="5" d="M188 61v109q170 -92 349 -92q73 0 134 18.5t111 58t78.5 110.5t28.5 167q0 89 -30 153.5t-83.5 100t-115.5 52t-136 16.5q-138 0 -272 -43l-25 28l86 645h660v-100h-567l-58 -446q82 18 176 18q95 0 178 -22t154 -69.5t112.5 -132.5t41.5 -200q0 -97 -26 -175 t-70.5 -129.5t-105.5 -86.5t-128.5 -50.5t-142.5 -15.5q-183 0 -349 86z" />
<glyph unicode="6" d="M154 651q0 172 31 305.5t84 217.5t128.5 138t158 75.5t179.5 21.5q157 0 283 -49v-109q-134 56 -289 56q-449 0 -459 -596q63 68 161.5 115.5t213.5 47.5q91 0 167.5 -26.5t135.5 -78.5t92 -136.5t33 -192.5q0 -202 -123 -333.5t-323 -131.5q-154 0 -262.5 88.5 t-159.5 238.5t-51 349zM272 582q0 -67 11 -134t38 -134.5t66.5 -119t101.5 -84t138 -32.5q152 0 240.5 96t88.5 264q0 166 -81.5 250t-235.5 84q-115 0 -218.5 -59.5t-148.5 -130.5z" />
<glyph unicode="7" d="M180 1284v100h879v-92q-123 -142 -215.5 -274t-177 -290.5t-142.5 -340.5t-88 -387h-119q65 390 224 713t379 571h-740z" />
<glyph unicode="8" d="M125 375q0 264 254 352q-103 46 -161 121.5t-58 202.5q0 157 123.5 257.5t308.5 100.5t308.5 -100.5t123.5 -257.5q0 -127 -58 -202.5t-163 -121.5q256 -89 256 -352q0 -178 -128.5 -289t-338.5 -111t-338.5 111t-128.5 289zM244 375q0 -140 101.5 -218.5t246.5 -78.5 q143 0 245.5 78.5t102.5 218.5q0 81 -29 141.5t-79 94t-110 49.5t-130 16q-71 0 -131 -16t-110 -49.5t-78.5 -94t-28.5 -141.5zM279 1047q0 -129 92 -200t221 -71t221 71t92 200q0 123 -91 191.5t-222 68.5t-222 -68.5t-91 -191.5z" />
<glyph unicode="9" d="M111 942q0 202 123 333.5t323 131.5q154 0 262.5 -88.5t159.5 -238.5t51 -349q0 -172 -31 -305.5t-84 -217.5t-128.5 -138t-158 -75.5t-179.5 -21.5q-154 0 -283 50v108q132 -55 289 -55q448 0 458 596q-63 -68 -161 -116t-213 -48q-91 0 -167.5 26.5t-135.5 78.5 t-92 136.5t-33 192.5zM227 944q0 -165 82 -249.5t236 -84.5q115 0 218 59.5t148 131.5q0 67 -11 134t-38 134.5t-66 119t-101 84t-138 32.5q-152 0 -241 -96.5t-89 -264.5z" />
<glyph unicode=":" horiz-adv-x="503" d="M182 0v137h140v-137h-140zM182 836v137h140v-137h-140z" />
<glyph unicode=";" horiz-adv-x="503" d="M43 -305q95 58 138.5 130t43.5 167q0 58 -24 145h112q21 -64 21 -145q0 -244 -248 -383zM182 836v137h140v-137h-140z" />
<glyph unicode="&#x3c;" d="M115 600v90l954 440v-108l-811 -377l811 -377v-108z" />
<glyph unicode="=" d="M115 381v102h954v-102h-954zM115 791v102h954v-102h-954z" />
<glyph unicode="&#x3e;" d="M115 160v108l811 377l-811 377v108l954 -440v-90z" />
<glyph unicode="?" horiz-adv-x="829" d="M139 1241v111q91 57 244 57q69 0 128.5 -17.5t106.5 -52.5t74 -93t27 -132q0 -60 -14.5 -112.5t-47 -101t-53.5 -74t-65 -72.5q-82 -87 -106.5 -129t-24.5 -115v-139h-105v141q0 30 3.5 57t7.5 46.5t14.5 41.5t17.5 35t24 35t26 32.5t32.5 36t34.5 38.5q34 38 51.5 59.5 t42.5 59t36 75.5t11 80q0 199 -227 199q-135 0 -238 -66zM285 0v137h139v-137h-139z" />
<glyph unicode="@" horiz-adv-x="1597" d="M111 508q0 129 40.5 239.5t110 189.5t161 135.5t195 84t211.5 27.5q103 0 198.5 -23t179.5 -71.5t147 -117.5t99 -166t36 -212q0 -113 -31.5 -204t-100.5 -149.5t-167 -58.5q-160 0 -209 121q-81 -121 -231 -121q-111 0 -184.5 83t-73.5 224q0 162 91.5 244t231.5 82 q125 0 238 -55v-295q0 -100 34 -142t107 -42q89 0 147 79t58 234q0 98 -32 180t-86 138.5t-127.5 95.5t-155 57t-169.5 18q-121 0 -231 -35.5t-199.5 -104t-142.5 -181t-53 -254.5q0 -128 34.5 -230t93.5 -169t140.5 -111t170.5 -63t189 -19q207 0 381 55v-92 q-165 -55 -378 -55q-114 0 -216.5 22.5t-196.5 74.5t-161.5 129t-108 194.5t-40.5 263.5zM586 489q0 -100 45.5 -154t128.5 -54q70 0 120.5 42.5t75.5 108.5v262q-67 25 -143 25q-102 0 -164.5 -54.5t-62.5 -175.5z" />
<glyph unicode="A" horiz-adv-x="1226" d="M0 0l559 1384h119l549 -1384h-119l-158 393h-678l-153 -393h-119zM315 496h596l-299 753z" />
<glyph unicode="B" horiz-adv-x="1226" d="M236 0v1384h348q249 0 373 -91t124 -261q0 -71 -23 -129t-62.5 -96t-84 -62.5t-94.5 -37.5q130 -26 214.5 -107.5t84.5 -220.5q0 -181 -143 -280t-404 -99h-333zM350 100h223q194 0 308 70t114 205q0 128 -109 203t-306 75h-230v-553zM350 754h223q180 0 284 72.5 t104 205.5q0 130 -95 191t-280 61h-236v-530z" />
<glyph unicode="C" horiz-adv-x="1312" d="M131 692q0 326 190 521.5t508 195.5q197 0 336 -68v-108q-148 74 -336 74q-265 0 -422 -166.5t-157 -448.5t159.5 -448t424.5 -166q195 0 348 86v-111q-153 -78 -346 -78q-323 0 -514 195.5t-191 521.5z" />
<glyph unicode="D" horiz-adv-x="1538" d="M236 0v1384h395q383 0 580.5 -184t197.5 -508t-197.5 -508t-580.5 -184h-395zM350 100h281q312 0 483.5 149t171.5 443t-171.5 443t-483.5 149h-281v-1184z" />
<glyph unicode="E" horiz-adv-x="1159" d="M217 317v1067h776v-100h-661v-512h610v-100h-610v-355q0 -110 53 -163.5t166 -53.5h477v-100h-489q-168 0 -245 80.5t-77 236.5z" />
<glyph unicode="F" horiz-adv-x="1116" d="M236 0v1384h757v-100h-643v-528h592v-101h-592v-655h-114z" />
<glyph unicode="G" horiz-adv-x="1636" d="M131 692q0 148 41.5 269t112.5 203t167.5 138t203 81.5t223.5 25.5q136 0 271 -35t245 -100v-109q-111 66 -246 104t-270 38q-100 0 -189.5 -20.5t-171 -67.5t-140.5 -116.5t-93.5 -174t-34.5 -234.5q0 -285 159.5 -450.5t428.5 -165.5q279 0 481 123v417h-490v101h598 v-574q-283 -170 -591 -170q-318 0 -511.5 196.5t-193.5 520.5z" />
<glyph unicode="H" horiz-adv-x="1599" d="M236 0v1384h114v-612h899v612h115v-1384h-115v672h-899v-672h-114z" />
<glyph unicode="I" horiz-adv-x="585" d="M236 0v1384h114v-1384h-114z" />
<glyph unicode="J" horiz-adv-x="751" d="M33 16v109q40 -20 96 -33.5t100 -13.5q108 0 155.5 62.5t47.5 195.5v1048h115v-1052q0 -176 -83 -266.5t-233 -90.5q-115 0 -198 41z" />
<glyph unicode="K" horiz-adv-x="1204" d="M236 0v1384h114v-630l688 630h142l-717 -659l741 -725h-153l-701 674v-674h-114z" />
<glyph unicode="L" horiz-adv-x="1024" d="M217 317v1067h115v-1067q0 -110 53 -163.5t166 -53.5h430v-100h-442q-168 0 -245 80.5t-77 236.5z" />
<glyph unicode="M" horiz-adv-x="1918" d="M236 0v1384h131l591 -997l592 997h133v-1384h-114v1206l-553 -936h-113l-553 936v-1206h-114z" />
<glyph unicode="N" horiz-adv-x="1589" d="M236 0v1384h106l905 -1214v1214h107v-1384h-107l-905 1214v-1214h-106z" />
<glyph unicode="O" horiz-adv-x="1675" d="M131 692q0 325 193.5 521t513.5 196q319 0 512.5 -196t193.5 -521t-193.5 -521t-512.5 -196q-320 0 -513.5 196t-193.5 521zM250 692q0 -283 159 -448.5t429 -165.5t427.5 165.5t157.5 448.5t-157.5 449t-427.5 166t-429 -166t-159 -449z" />
<glyph unicode="P" horiz-adv-x="1239" d="M236 0v1384h387q242 0 372.5 -110t130.5 -307q0 -201 -132 -309.5t-371 -108.5h-273v-549h-114zM350 649h273q184 0 284.5 81.5t100.5 236.5t-100.5 236t-284.5 81h-273v-635z" />
<glyph unicode="Q" horiz-adv-x="1675" d="M131 692q0 325 193.5 521t513.5 196q319 0 512.5 -196t193.5 -521q0 -265 -132.5 -448t-360.5 -242l262 -313h-150l-225 293q-58 -7 -100 -7q-320 0 -513.5 196t-193.5 521zM250 692q0 -283 159 -448.5t429 -165.5t427.5 165.5t157.5 448.5t-157.5 449t-427.5 166 t-429 -166t-159 -449z" />
<glyph unicode="R" horiz-adv-x="1259" d="M236 0v1384h387q242 0 372.5 -110t130.5 -307q0 -172 -97.5 -275.5t-280.5 -134.5l434 -557h-135l-426 549h-271v-549h-114zM350 649h273q184 0 284.5 81.5t100.5 236.5t-100.5 236t-284.5 81h-273v-635z" />
<glyph unicode="S" horiz-adv-x="1144" d="M143 80v108q182 -110 396 -110q57 0 107.5 9t96 30.5t78 53.5t51.5 81t19 110q0 63 -25.5 110t-68.5 76.5t-99 52t-118 41t-124 38t-118 48.5t-99 67t-68.5 99t-25.5 140q0 93 38 166t103 118t144.5 68t167.5 23q217 0 369 -84v-108q-169 90 -371 90q-64 0 -121 -15 t-106 -46t-78 -84.5t-29 -123.5q0 -60 25.5 -106t68.5 -74.5t99 -51t118 -40.5t124 -38t118 -49.5t99 -68.5t68.5 -100.5t25.5 -140.5q0 -102 -39.5 -180t-107 -123.5t-150 -68t-176.5 -22.5q-105 0 -211.5 28.5t-180.5 76.5z" />
<glyph unicode="T" horiz-adv-x="1177" d="M43 1284v100h1090v-100h-488v-1284h-115v1284h-487z" />
<glyph unicode="U" horiz-adv-x="1409" d="M201 479v905h114v-901q0 -193 108 -299t282 -106q175 0 283 106t108 299v901h112v-905q0 -123 -40 -220.5t-109.5 -158.5t-159.5 -93t-194 -32q-103 0 -193 32t-160 93t-110.5 158.5t-40.5 220.5z" />
<glyph unicode="V" horiz-adv-x="1224" d="M0 1384h119l493 -1249l496 1249h117l-557 -1384h-119z" />
<glyph unicode="W" horiz-adv-x="1994" d="M27 1384h116l371 -1249l426 1249h115l426 -1249l370 1249h117l-418 -1384h-127l-426 1241l-426 -1241h-127z" />
<glyph unicode="X" horiz-adv-x="1222" d="M27 0l518 696l-512 688h139l440 -598l443 598h135l-512 -686l518 -698h-139l-447 608l-446 -608h-137z" />
<glyph unicode="Y" horiz-adv-x="1142" d="M0 1384h129l444 -712l449 712h121l-516 -825v-559h-115v559z" />
<glyph unicode="Z" horiz-adv-x="1200" d="M88 0v98l879 1186h-861v100h998v-100l-879 -1184h897v-100h-1034z" />
<glyph unicode="[" horiz-adv-x="598" d="M236 -389v1843h319v-98h-219v-1647h219v-98h-319z" />
<glyph unicode="\" horiz-adv-x="669" d="M0 1384h96l574 -1384h-99z" />
<glyph unicode="]" horiz-adv-x="598" d="M43 -291h219v1647h-219v98h319v-1843h-319v98z" />
<glyph unicode="^" d="M129 516l418 868h90l418 -868h-107l-356 746l-356 -746h-107z" />
<glyph unicode="_" horiz-adv-x="1224" d="M70 -25h1085v-98h-1085v98z" />
<glyph unicode="`" horiz-adv-x="1044" d="M373 1454h127l172 -309h-94z" />
<glyph unicode="a" horiz-adv-x="1150" d="M111 487q0 128 41.5 228t113 160.5t161 91t191.5 30.5q178 0 347 -79v-918h-101l-4 117q-142 -142 -328 -142q-88 0 -163.5 33t-133.5 95.5t-91 161.5t-33 222zM217 489q0 -206 92 -308.5t240 -102.5q178 0 311 166v602q-123 49 -244 49q-64 0 -121 -14t-108.5 -45 t-88.5 -77t-59 -115.5t-22 -154.5z" />
<glyph unicode="b" horiz-adv-x="1146" d="M182 66v1388h105v-575q43 32 78 53t103.5 43t141.5 22q88 0 164.5 -32.5t136 -94t93.5 -159t34 -219.5q0 -239 -130.5 -378t-354.5 -139q-196 0 -371 91zM287 133q116 -55 260 -55q63 0 118 13.5t104.5 44.5t84.5 78t55.5 118t20.5 160q0 196 -91.5 299.5t-230.5 103.5 q-90 0 -174.5 -36.5t-146.5 -92.5v-633z" />
<glyph unicode="c" horiz-adv-x="1003" d="M111 487q0 231 136 370.5t363 139.5q137 0 248 -51v-112q-119 61 -244 61q-86 0 -157 -24t-125.5 -72t-84.5 -127.5t-30 -184.5q0 -204 106.5 -306.5t274.5 -102.5q146 0 274 86v-117q-122 -72 -274 -72q-218 0 -352.5 141t-134.5 371z" />
<glyph unicode="d" horiz-adv-x="1150" d="M111 487q0 130 42 230t114.5 160t162 90t191.5 30q121 0 239 -41v498h105v-1454h-101l-4 117q-139 -142 -328 -142q-88 0 -163.5 33t-133.5 95.5t-91 161.5t-33 222zM217 487q0 -205 92.5 -307t239.5 -102q178 0 311 166v604q-106 47 -239 47q-81 0 -151 -22.5t-128 -69 t-91.5 -127.5t-33.5 -189z" />
<glyph unicode="e" horiz-adv-x="1099" d="M111 485q0 231 122.5 371.5t331.5 140.5q87 0 160 -26.5t123 -71.5t84.5 -105t50.5 -126.5t16 -137.5v-65h-782q4 -102 38 -178.5t89.5 -121t123.5 -66t148 -21.5q184 0 357 100v-115q-168 -88 -359 -88q-81 0 -153.5 17.5t-137 57t-111.5 98t-74 145t-27 192.5zM221 565 h670q-2 134 -90 232t-236 98q-151 0 -237 -85t-107 -245z" />
<glyph unicode="f" horiz-adv-x="624" d="M66 874v99h143v186q0 155 84 237.5t209 82.5q64 0 123 -21v-106q-52 24 -123 24q-83 0 -136 -53.5t-53 -163.5v-186h287v-99h-287v-874h-104v874h-143z" />
<glyph unicode="g" horiz-adv-x="1150" d="M111 487q0 128 41.5 228t113 160.5t161 91t191.5 30.5q178 0 347 -79v-910q0 -212 -119 -317t-318 -105q-204 0 -362 92v119q65 -42 162.5 -75t197.5 -33q334 0 334 321v109q-140 -144 -328 -144q-88 0 -163.5 33t-133.5 95.5t-91 161.5t-33 222zM217 489 q0 -206 92 -308.5t240 -102.5q180 0 311 166v602q-123 49 -244 49q-64 0 -121 -14t-108.5 -45t-88.5 -77t-59 -115.5t-22 -154.5z" />
<glyph unicode="h" horiz-adv-x="1157" d="M186 0v1454h105v-575q149 118 330 118q160 0 262 -94.5t102 -263.5v-639h-104v633q0 129 -74 195.5t-195 66.5q-87 0 -170.5 -34t-150.5 -95v-766h-105z" />
<glyph unicode="i" horiz-adv-x="477" d="M186 0v973h105v-973h-105zM186 1212v172h105v-172h-105z" />
<glyph unicode="j" horiz-adv-x="477" d="M-31 -279q59 -32 115 -32q45 0 73.5 26t28.5 84v1174h105v-1174q0 -111 -53.5 -162t-143.5 -51q-65 0 -125 29v106zM186 1212v172h105v-172h-105z" />
<glyph unicode="k" horiz-adv-x="974" d="M186 0v1454h105v-887l520 406h152l-570 -445l582 -528h-146l-538 477v-477h-105z" />
<glyph unicode="l" horiz-adv-x="518" d="M170 188v1266h104v-1266q0 -54 25 -82t68 -28q71 0 127 33v-107q-63 -29 -127 -29q-92 0 -144.5 53t-52.5 160z" />
<glyph unicode="m" horiz-adv-x="1810" d="M186 0v973h97l8 -94q149 118 319 118q98 0 179.5 -43.5t125.5 -119.5q173 163 369 163q151 0 252.5 -97.5t101.5 -266.5v-633h-104v627q0 128 -73.5 198t-186.5 70q-169 0 -324 -143q15 -58 15 -119v-633h-105v627q0 132 -73 200t-187 68q-167 0 -309 -129v-766h-105z " />
<glyph unicode="n" horiz-adv-x="1157" d="M186 0v973h97l8 -94q149 118 330 118q160 0 262 -94.5t102 -263.5v-639h-104v633q0 129 -74 195.5t-195 66.5q-87 0 -170.5 -34t-150.5 -95v-766h-105z" />
<glyph unicode="o" horiz-adv-x="1212" d="M111 485q0 228 138 370t357 142t357.5 -142t138.5 -370t-138.5 -369t-357.5 -141t-357 141t-138 369zM217 485q0 -191 107 -299t282 -108t281 107.5t106 299.5t-106 301t-281 109t-282 -109t-107 -301z" />
<glyph unicode="p" horiz-adv-x="1150" d="M186 -389v1362h97l8 -94q43 32 78 53t103.5 43t141.5 22q88 0 164.5 -32.5t135 -94t92.5 -159t34 -219.5q0 -125 -36.5 -225t-100 -163t-146.5 -96t-179 -33q-162 0 -287 80v-444h-105zM291 162q125 -84 282 -84q74 0 137 24t114 72.5t80.5 130t29.5 187.5 q0 102 -26.5 181t-72.5 126.5t-103.5 71.5t-123.5 24q-88 0 -172.5 -36.5t-144.5 -92.5v-604z" />
<glyph unicode="q" horiz-adv-x="1150" d="M111 487q0 128 41.5 228t113 160.5t161 91t191.5 30.5q178 0 347 -79v-1307h-105v508q-140 -144 -328 -144q-88 0 -163.5 33t-133.5 95.5t-91 161.5t-33 222zM217 489q0 -206 92 -308.5t240 -102.5q178 0 311 166v602q-123 49 -244 49q-64 0 -121 -14t-108.5 -45 t-88.5 -77t-59 -115.5t-22 -154.5z" />
<glyph unicode="r" horiz-adv-x="731" d="M186 0v973h97l8 -154q69 76 171.5 127t205.5 51v-112q-91 0 -195 -49.5t-182 -130.5v-705h-105z" />
<glyph unicode="s" horiz-adv-x="950" d="M117 715q0 135 107 208.5t274 73.5q82 0 174 -20t141 -49v-115q-57 37 -144 59.5t-173 22.5q-123 0 -199 -42.5t-76 -131.5q0 -53 34 -87.5t88 -52.5t119.5 -31.5t131.5 -32t120 -46t88 -81t34 -130.5q0 -139 -103 -212t-268 -73q-195 0 -346 91v112q162 -100 346 -100 q126 0 196 43.5t70 132.5q0 57 -34 94t-88 55.5t-119.5 32.5t-131 31t-119.5 43t-88 78t-34 127z" />
<glyph unicode="t" horiz-adv-x="669" d="M51 874v99h144l16 309h88v-309h309v-99h-309v-620q0 -98 42 -137t118 -39q86 0 168 51v-109q-79 -45 -181 -45q-112 0 -181.5 69t-69.5 212v618h-144z" />
<glyph unicode="u" horiz-adv-x="1122" d="M166 362v611h104v-602q0 -154 65 -223.5t191 -69.5q172 0 305 166v729h105v-973h-98l-7 117q-70 -68 -144.5 -105t-172.5 -37q-160 0 -254 100t-94 287z" />
<glyph unicode="v" horiz-adv-x="940" d="M8 973h115l346 -852l354 852h109l-418 -973h-104z" />
<glyph unicode="w" horiz-adv-x="1562" d="M27 973h108l275 -850l317 850h109l319 -850l272 850h111l-321 -973h-115l-320 844l-321 -844h-115z" />
<glyph unicode="x" horiz-adv-x="894" d="M16 0l369 487l-356 486h125l295 -400l307 400h114l-362 -479l369 -494h-129l-304 410l-309 -410h-119z" />
<glyph unicode="y" horiz-adv-x="1122" d="M166 362v611h104v-602q0 -154 65 -223.5t191 -69.5q172 0 305 166v729h105v-965q0 -204 -112 -313t-296 -109q-192 0 -325 72v117q148 -86 325 -86q135 0 219 79t84 242v109q-144 -144 -317 -144q-160 0 -254 99t-94 288z" />
<glyph unicode="z" horiz-adv-x="933" d="M94 0v78l598 799h-583v96h720v-78l-604 -799h617v-96h-748z" />
<glyph unicode="{" horiz-adv-x="632" d="M31 483v99q51 19 79.5 31.5t58.5 31.5t44 38.5t26.5 51t16.5 71t4 95.5v250q0 143 69 223t216 80h45v-96h-45q-187 0 -187 -207v-252q0 -161 -50.5 -242.5t-172.5 -124.5q122 -43 172.5 -124t50.5 -242v-252q0 -207 187 -207h45v-96h-45q-147 0 -216 80t-69 223v250 q0 56 -4 95.5t-16.5 71t-26.5 51t-44 38.5t-58.5 31.5t-79.5 31.5z" />
<glyph unicode="|" horiz-adv-x="559" d="M236 -389v2027h88v-2027h-88z" />
<glyph unicode="}" horiz-adv-x="632" d="M43 -293h45q186 0 186 207v252q0 160 51 241.5t173 124.5q-122 43 -173 125t-51 242v252q0 207 -186 207h-45v96h45q147 0 216 -80t69 -223v-250q0 -56 4 -95.5t16.5 -71t26.5 -51t44 -38.5t58.5 -31.5t79.5 -31.5v-99q-51 -19 -79.5 -31.5t-58.5 -31.5t-44 -38.5 t-26.5 -51t-16.5 -71t-4 -95.5v-250q0 -143 -69 -223t-216 -80h-45v96z" />
<glyph unicode="~" d="M115 512q0 110 55 176t143 66q67 0 178.5 -36t218 -72t162.5 -36q52 0 80.5 37t28.5 107h88q0 -108 -55 -175t-142 -67q-54 0 -135.5 22.5t-152 50t-148 50t-123.5 22.5q-53 0 -81.5 -37t-28.5 -108h-88z" />
<glyph unicode="&#xa1;" horiz-adv-x="573" d="M215 836v137h139v-137h-139zM221 -389l17 1014h92l18 -1014h-127z" />
<glyph unicode="&#xa2;" d="M199 692q0 232 111.5 384t301.5 181v334h90v-325q81 0 160.5 -20.5t126.5 -49.5v-117q-140 76 -287 76q-80 0 -148.5 -26t-124 -79.5t-87 -145t-31.5 -212.5q0 -101 21 -181.5t57 -133.5t86.5 -88.5t106.5 -50.5t120 -15q152 0 302 80v-115q-46 -29 -133 -51t-169 -22 v-340h-90v346q-192 30 -302.5 178.5t-110.5 392.5z" />
<glyph unicode="&#xa3;" d="M190 657v93h195q-3 12 -12 41.5t-12 41.5t-9.5 37t-9 41.5t-6 40t-5 46.5t-1.5 49q0 159 110.5 260.5t296.5 101.5q180 0 312 -74v-108q-145 80 -314 80q-137 0 -215 -66t-78 -192q0 -78 14 -139.5t48 -159.5h442v-93h-414q31 -110 31 -206q0 -125 -49 -205.5 t-143 -145.5h700v-100h-860v96q68 47 107 79t72.5 73.5t47 88.5t13.5 109q0 96 -35 211h-226z" />
<glyph unicode="&#xa5;" d="M68 1384h127l391 -628l411 628h117l-452 -692h333v-94h-356v-229h356v-95h-356v-274h-115v274h-358v95h358v229h-358v94h334z" />
<glyph unicode="&#xa8;" horiz-adv-x="1044" d="M297 1223v170h104v-170h-104zM643 1223v170h105v-170h-105z" />
<glyph unicode="&#xa9;" horiz-adv-x="1677" d="M131 692q0 325 194.5 521t514.5 196q157 0 289 -51.5t224 -144t143.5 -226.5t51.5 -295t-51.5 -295t-143.5 -226.5t-224 -144t-289 -51.5q-320 0 -514.5 196t-194.5 521zM223 692q0 -287 168 -454.5t447 -167.5q280 0 449 167.5t169 454.5t-169 455t-449 168 q-279 0 -447 -168t-168 -455zM485 692q0 193 112.5 297.5t285.5 104.5q125 0 225 -54v-98q-88 57 -221 57q-299 0 -299 -307q0 -151 80.5 -228t220.5 -77q57 0 119 21.5t112 62.5v-104q-110 -74 -241 -74q-82 0 -152.5 24.5t-125 72t-85.5 125t-31 177.5z" />
<glyph unicode="&#xab;" horiz-adv-x="1048" d="M78 508l301 407h117l-281 -407l281 -408h-117zM551 508l301 407h117l-281 -407l281 -408h-117z" />
<glyph unicode="&#xad;" horiz-adv-x="796" d="M166 543v110h467v-110h-467z" />
<glyph unicode="&#xae;" horiz-adv-x="1114" d="M131 977q0 189 121 310.5t305 121.5t305 -121.5t121 -310.5t-121 -310.5t-305 -121.5t-305 121.5t-121 310.5zM205 977q0 -161 99 -258.5t253 -97.5t253 97.5t99 258.5t-99 258.5t-253 97.5t-253 -97.5t-99 -258.5zM414 760v440h161q76 0 121 -34t45 -95 q0 -102 -114 -127l121 -184h-89l-116 176h-49v-176h-80zM494 1004h81q41 0 62.5 16.5t21.5 46.5q0 31 -21.5 48.5t-62.5 17.5h-81v-129z" />
<glyph unicode="&#xb4;" horiz-adv-x="1044" d="M371 1145l172 309h127l-205 -309h-94z" />
<glyph unicode="&#xb8;" horiz-adv-x="1044" d="M381 -295q17 -10 52 -19.5t67 -9.5q86 0 86 66q0 39 -25 52t-72 13h-81l53 193h86l-31 -106q82 0 123 -41t41 -113q0 -69 -49 -111.5t-133 -42.5q-62 0 -117 25v94z" />
<glyph unicode="&#xbb;" horiz-adv-x="1050" d="M78 100l280 408l-280 407h117l301 -407l-301 -408h-117zM555 100l281 408l-281 407h117l301 -407l-301 -408h-117z" />
<glyph unicode="&#xbf;" horiz-adv-x="632" d="M12 -119q0 49 12 95.5t26.5 78.5t44.5 72.5t46.5 58.5t51.5 56q83 88 107 129t24 114v140h104v-142q0 -35 -3 -63t-12.5 -54t-15.5 -42t-25.5 -41.5t-28 -36t-36.5 -41.5t-39 -43q-34 -38 -51.5 -60t-42 -59.5t-36 -75.5t-11.5 -80q0 -198 227 -198q136 0 238 65v-110 q-43 -27 -110.5 -42.5t-133.5 -15.5q-69 0 -128.5 17.5t-106.5 52.5t-74 93t-27 132zM307 836v137h139v-137h-139z" />
<glyph unicode="&#xc0;" horiz-adv-x="1226" d="M0 0l559 1384h119l549 -1384h-119l-158 393h-678l-153 -393h-119zM315 496h596l-299 753zM369 1833h127l172 -309h-95z" />
<glyph unicode="&#xc1;" horiz-adv-x="1226" d="M0 0l559 1384h119l549 -1384h-119l-158 393h-678l-153 -393h-119zM315 496h596l-299 753zM573 1524l172 309h127l-204 -309h-95z" />
<glyph unicode="&#xc2;" horiz-adv-x="1226" d="M0 0l559 1384h119l549 -1384h-119l-158 393h-678l-153 -393h-119zM315 496h596l-299 753zM367 1524l204 309h82l205 -309h-94l-152 202l-151 -202h-94z" />
<glyph unicode="&#xc3;" horiz-adv-x="1226" d="M0 0l559 1384h119l549 -1384h-119l-158 393h-678l-153 -393h-119zM315 496h596l-299 753zM332 1565q0 100 38.5 162.5t118.5 62.5q35 0 74.5 -21t68 -45.5t60 -45.5t53.5 -21q66 0 66 129h84q0 -100 -39 -162.5t-119 -62.5q-36 0 -73 21t-63 45.5t-59 45.5t-61 21 q-65 0 -65 -129h-84z" />
<glyph unicode="&#xc4;" horiz-adv-x="1226" d="M0 0l559 1384h119l549 -1384h-119l-158 393h-678l-153 -393h-119zM315 496h596l-299 753zM387 1591v170h105v-170h-105zM733 1591v170h105v-170h-105z" />
<glyph unicode="&#xc5;" horiz-adv-x="1226" d="M0 0l559 1384h119l549 -1384h-119l-158 393h-678l-153 -393h-119zM315 496h596l-299 753zM406 1679q0 84 60.5 132.5t145.5 48.5t146 -48.5t61 -132.5q0 -86 -61 -135t-146 -49t-145.5 49t-60.5 135zM492 1677q0 -50 32.5 -77t87.5 -27t87 27t32 77t-32 77.5t-87 27.5 t-87.5 -27.5t-32.5 -77.5z" />
<glyph unicode="&#xc6;" horiz-adv-x="1777" d="M-59 0l833 1384h838v-100h-662v-512h611v-100h-611v-355q0 -110 52.5 -163.5t166.5 -53.5h478v-100h-490q-169 0 -245 80.5t-76 236.5v76h-535l-235 -393h-125zM362 496h474v788z" />
<glyph unicode="&#xc7;" horiz-adv-x="1312" d="M131 692q0 326 190 521.5t508 195.5q197 0 336 -68v-108q-148 74 -336 74q-265 0 -422 -166.5t-157 -448.5t159.5 -448t424.5 -166q195 0 348 86v-111q-153 -78 -346 -78q-43 0 -101 7l-24 -88q81 0 122 -41.5t41 -112.5q0 -69 -49.5 -111.5t-134.5 -42.5q-58 0 -117 25 v94q56 -29 119 -29q88 0 88 66q0 39 -25 52t-73 13h-82l53 187q-245 53 -383.5 237.5t-138.5 460.5z" />
<glyph unicode="&#xc8;" horiz-adv-x="1159" d="M217 317v1067h776v-100h-661v-512h610v-100h-610v-355q0 -110 53 -163.5t166 -53.5h477v-100h-489q-168 0 -245 80.5t-77 236.5zM354 1833h127l172 -309h-94z" />
<glyph unicode="&#xc9;" horiz-adv-x="1159" d="M217 317v1067h776v-100h-661v-512h610v-100h-610v-355q0 -110 53 -163.5t166 -53.5h477v-100h-489q-168 0 -245 80.5t-77 236.5zM547 1524l172 309h127l-205 -309h-94z" />
<glyph unicode="&#xca;" horiz-adv-x="1159" d="M217 317v1067h776v-100h-661v-512h610v-100h-610v-355q0 -110 53 -163.5t166 -53.5h477v-100h-489q-168 0 -245 80.5t-77 236.5zM358 1524l205 309h82l205 -309h-94l-152 202l-151 -202h-95z" />
<glyph unicode="&#xcb;" horiz-adv-x="1159" d="M217 317v1067h776v-100h-661v-512h610v-100h-610v-355q0 -110 53 -163.5t166 -53.5h477v-100h-489q-168 0 -245 80.5t-77 236.5zM379 1593v170h104v-170h-104zM725 1593v170h104v-170h-104z" />
<glyph unicode="&#xcc;" horiz-adv-x="585" d="M43 1833h127l172 -309h-94zM236 0v1384h114v-1384h-114z" />
<glyph unicode="&#xcd;" horiz-adv-x="585" d="M236 0v1384h114v-1384h-114zM244 1524l172 309h127l-205 -309h-94z" />
<glyph unicode="&#xce;" horiz-adv-x="585" d="M47 1524l205 309h82l205 -309h-95l-151 202l-152 -202h-94zM236 0v1384h114v-1384h-114z" />
<glyph unicode="&#xcf;" horiz-adv-x="585" d="M68 1593v170h104v-170h-104zM236 0v1384h114v-1384h-114zM414 1593v170h104v-170h-104z" />
<glyph unicode="&#xd0;" horiz-adv-x="1538" d="M63 670v102h173v612h395q383 0 580.5 -184t197.5 -508t-197.5 -508t-580.5 -184h-395v670h-173zM350 100h281q312 0 483.5 149t171.5 443t-171.5 443t-483.5 149h-281v-512h459v-102h-459v-570z" />
<glyph unicode="&#xd1;" horiz-adv-x="1589" d="M236 0v1384h106l905 -1214v1214h107v-1384h-107l-905 1214v-1214h-106zM512 1565q0 100 39 162.5t119 62.5q35 0 74.5 -21t68 -45.5t60 -45.5t53.5 -21q65 0 65 129h84q0 -100 -38.5 -162.5t-118.5 -62.5q-36 0 -73 21t-63 45.5t-59 45.5t-61 21q-66 0 -66 -129h-84z" />
<glyph unicode="&#xd2;" horiz-adv-x="1675" d="M131 692q0 325 193.5 521t513.5 196q319 0 512.5 -196t193.5 -521t-193.5 -521t-512.5 -196q-320 0 -513.5 196t-193.5 521zM250 692q0 -283 159 -448.5t429 -165.5t427.5 165.5t157.5 448.5t-157.5 449t-427.5 166t-429 -166t-159 -449zM598 1833h127l172 -309h-94z" />
<glyph unicode="&#xd3;" horiz-adv-x="1675" d="M131 692q0 325 193.5 521t513.5 196q319 0 512.5 -196t193.5 -521t-193.5 -521t-512.5 -196q-320 0 -513.5 196t-193.5 521zM250 692q0 -283 159 -448.5t429 -165.5t427.5 165.5t157.5 448.5t-157.5 449t-427.5 166t-429 -166t-159 -449zM791 1524l172 309h127l-205 -309 h-94z" />
<glyph unicode="&#xd4;" horiz-adv-x="1675" d="M131 692q0 325 193.5 521t513.5 196q319 0 512.5 -196t193.5 -521t-193.5 -521t-512.5 -196q-320 0 -513.5 196t-193.5 521zM250 692q0 -283 159 -448.5t429 -165.5t427.5 165.5t157.5 448.5t-157.5 449t-427.5 166t-429 -166t-159 -449zM592 1524l205 309h82l204 -309 h-94l-151 202l-152 -202h-94z" />
<glyph unicode="&#xd5;" horiz-adv-x="1675" d="M131 692q0 325 193.5 521t513.5 196q319 0 512.5 -196t193.5 -521t-193.5 -521t-512.5 -196q-320 0 -513.5 196t-193.5 521zM250 692q0 -283 159 -448.5t429 -165.5t427.5 165.5t157.5 448.5t-157.5 449t-427.5 166t-429 -166t-159 -449zM557 1565q0 100 39 162.5 t119 62.5q35 0 74.5 -21t68 -45.5t60 -45.5t53.5 -21q65 0 65 129h84q0 -100 -38.5 -162.5t-118.5 -62.5q-36 0 -73 21t-63 45.5t-59 45.5t-61 21q-66 0 -66 -129h-84z" />
<glyph unicode="&#xd6;" horiz-adv-x="1675" d="M131 692q0 325 193.5 521t513.5 196q319 0 512.5 -196t193.5 -521t-193.5 -521t-512.5 -196q-320 0 -513.5 196t-193.5 521zM250 692q0 -283 159 -448.5t429 -165.5t427.5 165.5t157.5 448.5t-157.5 449t-427.5 166t-429 -166t-159 -449zM612 1595v170h105v-170h-105z M958 1595v170h105v-170h-105z" />
<glyph unicode="&#xd8;" horiz-adv-x="1677" d="M131 692q0 325 193.5 521t513.5 196q233 0 407 -111l139 183l76 -60l-139 -180q107 -97 165 -237t58 -312q0 -325 -193.5 -521t-512.5 -196q-233 0 -406 109l-139 -180l-78 61l139 176q-107 95 -165 235.5t-58 315.5zM250 692q0 -300 174 -463l754 983q-148 95 -340 95 q-270 0 -429 -166t-159 -449zM498 170q140 -92 340 -92q270 0 427.5 165.5t157.5 448.5q0 299 -170 461z" />
<glyph unicode="&#xd9;" horiz-adv-x="1409" d="M201 479v905h114v-901q0 -193 108 -299t282 -106q175 0 283 106t108 299v901h112v-905q0 -123 -40 -220.5t-109.5 -158.5t-159.5 -93t-194 -32q-103 0 -193 32t-160 93t-110.5 158.5t-40.5 220.5zM457 1833h127l172 -309h-94z" />
<glyph unicode="&#xda;" horiz-adv-x="1409" d="M201 479v905h114v-901q0 -193 108 -299t282 -106q175 0 283 106t108 299v901h112v-905q0 -123 -40 -220.5t-109.5 -158.5t-159.5 -93t-194 -32q-103 0 -193 32t-160 93t-110.5 158.5t-40.5 220.5zM653 1524l172 309h127l-204 -309h-95z" />
<glyph unicode="&#xdb;" horiz-adv-x="1409" d="M201 479v905h114v-901q0 -193 108 -299t282 -106q175 0 283 106t108 299v901h112v-905q0 -123 -40 -220.5t-109.5 -158.5t-159.5 -93t-194 -32q-103 0 -193 32t-160 93t-110.5 158.5t-40.5 220.5zM457 1524l205 309h81l205 -309h-94l-152 202l-151 -202h-94z" />
<glyph unicode="&#xdc;" horiz-adv-x="1409" d="M201 479v905h114v-901q0 -193 108 -299t282 -106q175 0 283 106t108 299v901h112v-905q0 -123 -40 -220.5t-109.5 -158.5t-159.5 -93t-194 -32q-103 0 -193 32t-160 93t-110.5 158.5t-40.5 220.5zM477 1591v170h105v-170h-105zM823 1591v170h105v-170h-105z" />
<glyph unicode="&#xdd;" horiz-adv-x="1142" d="M0 1384h129l444 -712l449 712h121l-516 -825v-559h-115v559zM522 1524l172 309h127l-205 -309h-94z" />
<glyph unicode="&#xde;" horiz-adv-x="1239" d="M236 0v1384h114v-264h273q242 0 372.5 -110.5t130.5 -307.5q0 -201 -132 -309t-371 -108h-273v-285h-114zM350 385h273q184 0 284.5 81t100.5 236t-100.5 236.5t-284.5 81.5h-273v-635z" />
<glyph unicode="&#xdf;" horiz-adv-x="1089" d="M186 0v1122q0 106 52 189t134.5 125.5t178.5 42.5q89 0 160 -29t113.5 -76.5t64.5 -102t22 -110.5q0 -70 -20.5 -128t-49.5 -96t-58 -70.5t-49.5 -68t-20.5 -73.5q0 -42 17.5 -76.5t45 -59.5t61 -48.5t67.5 -50t61.5 -57.5t45 -78t17.5 -105q0 -128 -86.5 -201.5 t-232.5 -73.5q-72 0 -147.5 21t-115.5 49v113q130 -80 267 -80q98 0 153.5 42.5t55.5 125.5q0 46 -17 82.5t-44.5 62t-60.5 48.5t-66 48t-60.5 55t-44.5 76t-17 103q0 53 20 97t49 76.5t57.5 66t48.5 83.5t20 113q0 41 -14.5 78.5t-43.5 69.5t-80 51.5t-118 19.5 q-105 0 -182.5 -65t-77.5 -183v-1128h-105z" />
<glyph unicode="&#xe0;" horiz-adv-x="1150" d="M111 487q0 128 41.5 228t113 160.5t161 91t191.5 30.5q178 0 347 -79v-918h-101l-4 117q-142 -142 -328 -142q-88 0 -163.5 33t-133.5 95.5t-91 161.5t-33 222zM217 489q0 -206 92 -308.5t240 -102.5q178 0 311 166v602q-123 49 -244 49q-64 0 -121 -14t-108.5 -45 t-88.5 -77t-59 -115.5t-22 -154.5zM328 1454h127l172 -309h-95z" />
<glyph unicode="&#xe1;" horiz-adv-x="1150" d="M111 487q0 128 41.5 228t113 160.5t161 91t191.5 30.5q178 0 347 -79v-918h-101l-4 117q-142 -142 -328 -142q-88 0 -163.5 33t-133.5 95.5t-91 161.5t-33 222zM217 489q0 -206 92 -308.5t240 -102.5q178 0 311 166v602q-123 49 -244 49q-64 0 -121 -14t-108.5 -45 t-88.5 -77t-59 -115.5t-22 -154.5zM494 1145l172 309h127l-205 -309h-94z" />
<glyph unicode="&#xe2;" horiz-adv-x="1150" d="M111 487q0 128 41.5 228t113 160.5t161 91t191.5 30.5q178 0 347 -79v-918h-101l-4 117q-142 -142 -328 -142q-88 0 -163.5 33t-133.5 95.5t-91 161.5t-33 222zM217 489q0 -206 92 -308.5t240 -102.5q178 0 311 166v602q-123 49 -244 49q-64 0 -121 -14t-108.5 -45 t-88.5 -77t-59 -115.5t-22 -154.5zM305 1145l205 309h82l205 -309h-95l-151 203l-152 -203h-94z" />
<glyph unicode="&#xe3;" horiz-adv-x="1150" d="M111 487q0 128 41.5 228t113 160.5t161 91t191.5 30.5q178 0 347 -79v-918h-101l-4 117q-142 -142 -328 -142q-88 0 -163.5 33t-133.5 95.5t-91 161.5t-33 222zM217 489q0 -206 92 -308.5t240 -102.5q178 0 311 166v602q-123 49 -244 49q-64 0 -121 -14t-108.5 -45 t-88.5 -77t-59 -115.5t-22 -154.5zM268 1186q0 100 39 162.5t119 62.5q35 0 74.5 -21t68 -45.5t60 -45.5t53.5 -21q66 0 66 129h83q0 -100 -38.5 -162.5t-118.5 -62.5q-36 0 -73 21t-63 45.5t-59 45.5t-61 21q-66 0 -66 -129h-84z" />
<glyph unicode="&#xe4;" horiz-adv-x="1150" d="M111 487q0 128 41.5 228t113 160.5t161 91t191.5 30.5q178 0 347 -79v-918h-101l-4 117q-142 -142 -328 -142q-88 0 -163.5 33t-133.5 95.5t-91 161.5t-33 222zM217 489q0 -206 92 -308.5t240 -102.5q178 0 311 166v602q-123 49 -244 49q-64 0 -121 -14t-108.5 -45 t-88.5 -77t-59 -115.5t-22 -154.5zM326 1223v170h104v-170h-104zM672 1223v170h104v-170h-104z" />
<glyph unicode="&#xe5;" horiz-adv-x="1150" d="M111 487q0 128 41.5 228t113 160.5t161 91t191.5 30.5q178 0 347 -79v-918h-101l-4 117q-142 -142 -328 -142q-88 0 -163.5 33t-133.5 95.5t-91 161.5t-33 222zM217 489q0 -206 92 -308.5t240 -102.5q178 0 311 166v602q-123 49 -244 49q-64 0 -121 -14t-108.5 -45 t-88.5 -77t-59 -115.5t-22 -154.5zM344 1298q0 84 61 132.5t146 48.5t146 -48.5t61 -132.5q0 -86 -61 -135t-146 -49t-146 49t-61 135zM430 1296q0 -50 33 -77t88 -27t87 27t32 77t-32 77.5t-87 27.5t-88 -27.5t-33 -77.5z" />
<glyph unicode="&#xe6;" horiz-adv-x="1759" d="M111 487q0 128 41.5 227.5t112 160t159 91.5t188.5 31q187 0 351 -79q112 79 262 79q87 0 160 -26.5t123 -71.5t84.5 -105t50.5 -126.5t16 -137.5v-65h-782q4 -102 38 -178.5t89.5 -121t123.5 -66t148 -21.5q183 0 356 100v-115q-168 -88 -358 -88q-243 0 -383 152 q-155 -152 -356 -152q-182 0 -303 134.5t-121 377.5zM217 489q0 -205 92.5 -308t239.5 -103q161 0 282 131q-61 125 -61 276q0 215 107 353q-128 57 -256 57q-63 0 -119.5 -13t-109.5 -43t-91 -75.5t-61 -116t-23 -158.5zM881 565h669q-2 135 -89 232.5t-236 97.5 q-151 0 -237 -85t-107 -245z" />
<glyph unicode="&#xe7;" horiz-adv-x="1003" d="M111 487q0 231 136 370.5t363 139.5q137 0 248 -51v-112q-119 61 -244 61q-86 0 -157 -24t-125.5 -72t-84.5 -127.5t-30 -184.5q0 -204 106.5 -306.5t274.5 -102.5q149 0 274 86v-117q-118 -72 -274 -72q-31 0 -47 2l-23 -83q82 0 123 -41t41 -113q0 -69 -49 -111.5 t-133 -42.5q-62 0 -117 25v94q17 -10 52 -19.5t67 -9.5q86 0 86 66q0 39 -24.5 52t-71.5 13h-82l49 183q-165 39 -261.5 171t-96.5 326z" />
<glyph unicode="&#xe8;" horiz-adv-x="1099" d="M111 485q0 231 122.5 371.5t331.5 140.5q87 0 160 -26.5t123 -71.5t84.5 -105t50.5 -126.5t16 -137.5v-65h-782q4 -102 38 -178.5t89.5 -121t123.5 -66t148 -21.5q184 0 357 100v-115q-168 -88 -359 -88q-81 0 -153.5 17.5t-137 57t-111.5 98t-74 145t-27 192.5zM221 565 h670q-2 134 -90 232t-236 98q-151 0 -237 -85t-107 -245zM313 1454h127l172 -309h-94z" />
<glyph unicode="&#xe9;" horiz-adv-x="1099" d="M111 485q0 231 122.5 371.5t331.5 140.5q87 0 160 -26.5t123 -71.5t84.5 -105t50.5 -126.5t16 -137.5v-65h-782q4 -102 38 -178.5t89.5 -121t123.5 -66t148 -21.5q184 0 357 100v-115q-168 -88 -359 -88q-81 0 -153.5 17.5t-137 57t-111.5 98t-74 145t-27 192.5zM221 565 h670q-2 134 -90 232t-236 98q-151 0 -237 -85t-107 -245zM504 1145l172 309h127l-205 -309h-94z" />
<glyph unicode="&#xea;" horiz-adv-x="1099" d="M111 485q0 231 122.5 371.5t331.5 140.5q87 0 160 -26.5t123 -71.5t84.5 -105t50.5 -126.5t16 -137.5v-65h-782q4 -102 38 -178.5t89.5 -121t123.5 -66t148 -21.5q184 0 357 100v-115q-168 -88 -359 -88q-81 0 -153.5 17.5t-137 57t-111.5 98t-74 145t-27 192.5zM221 565 h670q-2 134 -90 232t-236 98q-151 0 -237 -85t-107 -245zM309 1145l205 309h82l205 -309h-94l-152 203l-152 -203h-94z" />
<glyph unicode="&#xeb;" horiz-adv-x="1099" d="M111 485q0 231 122.5 371.5t331.5 140.5q87 0 160 -26.5t123 -71.5t84.5 -105t50.5 -126.5t16 -137.5v-65h-782q4 -102 38 -178.5t89.5 -121t123.5 -66t148 -21.5q184 0 357 100v-115q-168 -88 -359 -88q-81 0 -153.5 17.5t-137 57t-111.5 98t-74 145t-27 192.5zM221 565 h670q-2 134 -90 232t-236 98q-151 0 -237 -85t-107 -245zM330 1223v170h104v-170h-104zM676 1223v170h104v-170h-104z" />
<glyph unicode="&#xec;" horiz-adv-x="477" d="M-12 1454h127l172 -309h-94zM186 0v973h105v-973h-105z" />
<glyph unicode="&#xed;" horiz-adv-x="477" d="M186 0v973h105v-973h-105zM190 1145l172 309h127l-204 -309h-95z" />
<glyph unicode="&#xee;" horiz-adv-x="477" d="M-8 1145l205 309h82l204 -309h-94l-151 203l-152 -203h-94zM186 0v973h105v-973h-105z" />
<glyph unicode="&#xef;" horiz-adv-x="477" d="M12 1223v170h105v-170h-105zM186 0v973h105v-973h-105zM358 1223v170h105v-170h-105z" />
<glyph unicode="&#xf0;" horiz-adv-x="1212" d="M111 485q0 228 138.5 370t356.5 142q238 0 373 -176q-32 176 -141 404l-461 -80v94l418 72q-64 116 -82 143h100q32 -49 74 -127l243 43v-94l-198 -35q73 -144 118.5 -321.5t45.5 -348.5q0 -281 -124 -438.5t-366 -157.5q-218 0 -356.5 141.5t-138.5 368.5zM217 485 q0 -191 107 -299t282 -108q174 0 279.5 110.5t105.5 303.5q0 197 -104 300t-281 103q-175 0 -282 -109t-107 -301z" />
<glyph unicode="&#xf1;" horiz-adv-x="1157" d="M186 0v973h97l8 -94q149 118 330 118q160 0 262 -94.5t102 -263.5v-639h-104v633q0 129 -74 195.5t-195 66.5q-87 0 -170.5 -34t-150.5 -95v-766h-105zM297 1186q0 100 39 162.5t119 62.5q35 0 74.5 -21t68 -45.5t60 -45.5t53.5 -21q65 0 65 129h84q0 -100 -39 -162.5 t-119 -62.5q-36 0 -73 21t-63 45.5t-59 45.5t-61 21q-65 0 -65 -129h-84z" />
<glyph unicode="&#xf2;" horiz-adv-x="1212" d="M111 485q0 228 138 370t357 142t357.5 -142t138.5 -370t-138.5 -369t-357.5 -141t-357 141t-138 369zM217 485q0 -191 107 -299t282 -108t281 107.5t106 299.5t-106 301t-281 109t-282 -109t-107 -301zM356 1454h127l172 -309h-94z" />
<glyph unicode="&#xf3;" horiz-adv-x="1212" d="M111 485q0 228 138 370t357 142t357.5 -142t138.5 -370t-138.5 -369t-357.5 -141t-357 141t-138 369zM217 485q0 -191 107 -299t282 -108t281 107.5t106 299.5t-106 301t-281 109t-282 -109t-107 -301zM551 1145l172 309h127l-205 -309h-94z" />
<glyph unicode="&#xf4;" horiz-adv-x="1212" d="M111 485q0 228 138 370t357 142t357.5 -142t138.5 -370t-138.5 -369t-357.5 -141t-357 141t-138 369zM217 485q0 -191 107 -299t282 -108t281 107.5t106 299.5t-106 301t-281 109t-282 -109t-107 -301zM360 1145l205 309h82l205 -309h-94l-152 203l-151 -203h-95z" />
<glyph unicode="&#xf5;" horiz-adv-x="1212" d="M111 485q0 228 138 370t357 142t357.5 -142t138.5 -370t-138.5 -369t-357.5 -141t-357 141t-138 369zM217 485q0 -191 107 -299t282 -108t281 107.5t106 299.5t-106 301t-281 109t-282 -109t-107 -301zM326 1186q0 100 38.5 162.5t118.5 62.5q35 0 74.5 -21t68 -45.5 t60 -45.5t53.5 -21q66 0 66 129h84q0 -100 -39 -162.5t-119 -62.5q-36 0 -73 21t-63 45.5t-59 45.5t-61 21q-65 0 -65 -129h-84z" />
<glyph unicode="&#xf6;" horiz-adv-x="1212" d="M111 485q0 228 138 370t357 142t357.5 -142t138.5 -370t-138.5 -369t-357.5 -141t-357 141t-138 369zM217 485q0 -191 107 -299t282 -108t281 107.5t106 299.5t-106 301t-281 109t-282 -109t-107 -301zM381 1223v170h104v-170h-104zM727 1223v170h104v-170h-104z" />
<glyph unicode="&#xf8;" horiz-adv-x="1212" d="M111 485q0 228 138 370t357 142q148 0 268 -71l105 143l72 -49l-107 -148q75 -69 116.5 -168.5t41.5 -218.5q0 -228 -138.5 -369t-357.5 -141q-152 0 -270 70l-107 -143l-69 55l104 141q-73 69 -113 168t-40 219zM217 485q0 -191 109 -303l487 662q-88 51 -207 51 q-175 0 -282 -109t-107 -301zM397 129q83 -51 209 -51q175 0 281 107.5t106 299.5q0 196 -110 306z" />
<glyph unicode="&#xf9;" horiz-adv-x="1122" d="M166 362v611h104v-602q0 -154 65 -223.5t191 -69.5q172 0 305 166v729h105v-973h-98l-7 117q-70 -68 -144.5 -105t-172.5 -37q-160 0 -254 100t-94 287zM313 1454h127l172 -309h-94z" />
<glyph unicode="&#xfa;" horiz-adv-x="1122" d="M166 362v611h104v-602q0 -154 65 -223.5t191 -69.5q172 0 305 166v729h105v-973h-98l-7 117q-70 -68 -144.5 -105t-172.5 -37q-160 0 -254 100t-94 287zM498 1145l172 309h127l-205 -309h-94z" />
<glyph unicode="&#xfb;" horiz-adv-x="1122" d="M166 362v611h104v-602q0 -154 65 -223.5t191 -69.5q172 0 305 166v729h105v-973h-98l-7 117q-70 -68 -144.5 -105t-172.5 -37q-160 0 -254 100t-94 287zM305 1145l205 309h82l205 -309h-95l-151 203l-152 -203h-94z" />
<glyph unicode="&#xfc;" horiz-adv-x="1122" d="M166 362v611h104v-602q0 -154 65 -223.5t191 -69.5q172 0 305 166v729h105v-973h-98l-7 117q-70 -68 -144.5 -105t-172.5 -37q-160 0 -254 100t-94 287zM326 1223v170h104v-170h-104zM672 1223v170h104v-170h-104z" />
<glyph unicode="&#xfd;" horiz-adv-x="1122" d="M166 362v611h104v-602q0 -154 65 -223.5t191 -69.5q172 0 305 166v729h105v-965q0 -204 -112 -313t-296 -109q-192 0 -325 72v117q148 -86 325 -86q135 0 219 79t84 242v109q-144 -144 -317 -144q-160 0 -254 99t-94 288zM498 1145l172 309h127l-205 -309h-94z" />
<glyph unicode="&#xfe;" horiz-adv-x="1146" d="M186 -389v1843h101v-575q43 32 78 53t103.5 43t141.5 22q88 0 164.5 -32.5t136 -94t93.5 -159t34 -219.5q0 -125 -36.5 -225t-100.5 -163t-147.5 -96t-180.5 -33q-158 0 -286 80v-444h-101zM287 162q124 -84 282 -84q74 0 137 24t114 72.5t80.5 130t29.5 187.5 q0 102 -26.5 181t-72.5 126.5t-103.5 71.5t-123.5 24q-87 0 -171 -36.5t-146 -92.5v-604z" />
<glyph unicode="&#xff;" horiz-adv-x="1122" d="M166 362v611h104v-602q0 -154 65 -223.5t191 -69.5q172 0 305 166v729h105v-965q0 -204 -112 -313t-296 -109q-192 0 -325 72v117q148 -86 325 -86q135 0 219 79t84 242v109q-144 -144 -317 -144q-160 0 -254 99t-94 288zM326 1223v170h104v-170h-104zM672 1223v170h104 v-170h-104z" />
<glyph unicode="&#x100;" horiz-adv-x="1226" d="M0 0l559 1384h119l549 -1384h-119l-158 393h-678l-153 -393h-119zM315 496h596l-299 753zM369 1630v92h487v-92h-487z" />
<glyph unicode="&#x101;" horiz-adv-x="1150" d="M111 487q0 128 41.5 228t113 160.5t161 91t191.5 30.5q178 0 347 -79v-918h-101l-4 117q-142 -142 -328 -142q-88 0 -163.5 33t-133.5 95.5t-91 161.5t-33 222zM217 489q0 -206 92 -308.5t240 -102.5q178 0 311 166v602q-123 49 -244 49q-64 0 -121 -14t-108.5 -45 t-88.5 -77t-59 -115.5t-22 -154.5zM307 1253v93h488v-93h-488z" />
<glyph unicode="&#x102;" horiz-adv-x="1226" d="M0 0l559 1384h119l549 -1384h-119l-158 393h-678l-153 -393h-119zM315 496h596l-299 753zM336 1821h88q23 -181 188 -181q84 0 131 47.5t58 133.5h88q-9 -127 -81.5 -205t-195.5 -78q-122 0 -194.5 78t-81.5 205z" />
<glyph unicode="&#x103;" horiz-adv-x="1150" d="M111 487q0 128 41.5 228t113 160.5t161 91t191.5 30.5q178 0 347 -79v-918h-101l-4 117q-142 -142 -328 -142q-88 0 -163.5 33t-133.5 95.5t-91 161.5t-33 222zM217 489q0 -206 92 -308.5t240 -102.5q178 0 311 166v602q-123 49 -244 49q-64 0 -121 -14t-108.5 -45 t-88.5 -77t-59 -115.5t-22 -154.5zM274 1440h88q23 -180 189 -180q165 0 188 180h88q-9 -127 -81.5 -205t-194.5 -78q-123 0 -195.5 78t-81.5 205z" />
<glyph unicode="&#x104;" horiz-adv-x="1226" d="M0 0l559 1384h119l549 -1384q-32 -28 -52 -48t-42 -49t-32.5 -60.5t-10.5 -67.5q0 -46 27 -71.5t71 -25.5q69 0 125 43v-98q-65 -37 -137 -37q-82 0 -130.5 49.5t-48.5 135.5q0 142 125 229h-14l-158 393h-678l-153 -393h-119zM315 496h596l-299 753z" />
<glyph unicode="&#x105;" horiz-adv-x="1150" d="M111 487q0 128 41.5 228t113 160.5t161 91t191.5 30.5q178 0 347 -79v-918q-44 -38 -69 -64.5t-47 -70t-22 -90.5q0 -46 26.5 -71.5t70.5 -25.5q71 0 127 43v-98q-65 -37 -140 -37q-80 0 -128 49.5t-48 135.5q0 70 35 129t94 100l-4 117q-142 -142 -328 -142 q-88 0 -163.5 33t-133.5 95.5t-91 161.5t-33 222zM217 489q0 -206 92 -308.5t240 -102.5q178 0 311 166v602q-123 49 -244 49q-64 0 -121 -14t-108.5 -45t-88.5 -77t-59 -115.5t-22 -154.5z" />
<glyph unicode="&#x106;" horiz-adv-x="1312" d="M131 692q0 326 190 521.5t508 195.5q197 0 336 -68v-108q-148 74 -336 74q-265 0 -422 -166.5t-157 -448.5t159.5 -448t424.5 -166q195 0 348 86v-111q-153 -78 -346 -78q-323 0 -514 195.5t-191 521.5zM645 1524l172 309h127l-205 -309h-94z" />
<glyph unicode="&#x107;" horiz-adv-x="1003" d="M111 487q0 231 136 370.5t363 139.5q137 0 248 -51v-112q-119 61 -244 61q-86 0 -157 -24t-125.5 -72t-84.5 -127.5t-30 -184.5q0 -204 106.5 -306.5t274.5 -102.5q146 0 274 86v-117q-122 -72 -274 -72q-218 0 -352.5 141t-134.5 371zM485 1145l172 309h127l-204 -309 h-95z" />
<glyph unicode="&#x108;" horiz-adv-x="1312" d="M131 692q0 326 190 521.5t508 195.5q197 0 336 -68v-108q-148 74 -336 74q-265 0 -422 -166.5t-157 -448.5t159.5 -448t424.5 -166q195 0 348 86v-111q-153 -78 -346 -78q-323 0 -514 195.5t-191 521.5zM461 1524l205 309h82l204 -309h-94l-151 202l-152 -202h-94z" />
<glyph unicode="&#x109;" horiz-adv-x="1003" d="M111 487q0 231 136 370.5t363 139.5q137 0 248 -51v-112q-119 61 -244 61q-86 0 -157 -24t-125.5 -72t-84.5 -127.5t-30 -184.5q0 -204 106.5 -306.5t274.5 -102.5q146 0 274 86v-117q-122 -72 -274 -72q-218 0 -352.5 141t-134.5 371zM287 1145l205 309h81l205 -309h-94 l-152 203l-151 -203h-94z" />
<glyph unicode="&#x10a;" horiz-adv-x="1312" d="M131 692q0 326 190 521.5t508 195.5q197 0 336 -68v-108q-148 74 -336 74q-265 0 -422 -166.5t-157 -448.5t159.5 -448t424.5 -166q195 0 348 86v-111q-153 -78 -346 -78q-323 0 -514 195.5t-191 521.5zM653 1593v170h105v-170h-105z" />
<glyph unicode="&#x10b;" horiz-adv-x="1003" d="M111 487q0 231 136 370.5t363 139.5q137 0 248 -51v-112q-119 61 -244 61q-86 0 -157 -24t-125.5 -72t-84.5 -127.5t-30 -184.5q0 -204 106.5 -306.5t274.5 -102.5q146 0 274 86v-117q-122 -72 -274 -72q-218 0 -352.5 141t-134.5 371zM479 1223v170h105v-170h-105z" />
<glyph unicode="&#x10c;" horiz-adv-x="1312" d="M131 692q0 326 190 521.5t508 195.5q197 0 336 -68v-108q-148 74 -336 74q-265 0 -422 -166.5t-157 -448.5t159.5 -448t424.5 -166q195 0 348 86v-111q-153 -78 -346 -78q-323 0 -514 195.5t-191 521.5zM461 1833h94l152 -203l151 203h94l-204 -309h-82z" />
<glyph unicode="&#x10d;" horiz-adv-x="1003" d="M111 487q0 231 136 370.5t363 139.5q137 0 248 -51v-112q-119 61 -244 61q-86 0 -157 -24t-125.5 -72t-84.5 -127.5t-30 -184.5q0 -204 106.5 -306.5t274.5 -102.5q146 0 274 86v-117q-122 -72 -274 -72q-218 0 -352.5 141t-134.5 371zM287 1454h94l151 -203l152 203h94 l-205 -309h-81z" />
<glyph unicode="&#x10e;" horiz-adv-x="1538" d="M236 0v1384h395q383 0 580.5 -184t197.5 -508t-197.5 -508t-580.5 -184h-395zM350 100h281q312 0 483.5 149t171.5 443t-171.5 443t-483.5 149h-281v-1184zM524 1833h94l152 -203l152 203h94l-205 -309h-82z" />
<glyph unicode="&#x10f;" horiz-adv-x="1249" d="M111 487q0 130 42 230t114.5 160t162 90t191.5 30q121 0 239 -41v498h105v-1454h-101l-4 117q-139 -142 -328 -142q-88 0 -163.5 33t-133.5 95.5t-91 161.5t-33 222zM217 487q0 -205 92.5 -307t239.5 -102q178 0 311 166v604q-106 47 -239 47q-81 0 -151 -22.5t-128 -69 t-91.5 -127.5t-33.5 -189zM1051 1114q102 80 102 219q0 57 -18 121h102q12 -47 12 -113q0 -186 -145 -301z" />
<glyph unicode="&#x110;" horiz-adv-x="1538" d="M63 670v102h173v612h395q383 0 580.5 -184t197.5 -508t-197.5 -508t-580.5 -184h-395v670h-173zM350 100h281q312 0 483.5 149t171.5 443t-171.5 443t-483.5 149h-281v-512h459v-102h-459v-570z" />
<glyph unicode="&#x111;" horiz-adv-x="1150" d="M111 487q0 130 42 230t114.5 160t162 90t191.5 30q121 0 239 -41v242h-418v92h418v164h105v-164h155v-92h-155v-1198h-101l-4 117q-139 -142 -328 -142q-88 0 -163.5 33t-133.5 95.5t-91 161.5t-33 222zM217 487q0 -205 92.5 -307t239.5 -102q178 0 311 166v604 q-106 47 -239 47q-80 0 -150 -22.5t-128.5 -69t-92 -127.5t-33.5 -189z" />
<glyph unicode="&#x112;" horiz-adv-x="1159" d="M217 317v1067h776v-100h-661v-512h610v-100h-610v-355q0 -110 53 -163.5t166 -53.5h477v-100h-489q-168 0 -245 80.5t-77 236.5zM360 1630v92h488v-92h-488z" />
<glyph unicode="&#x113;" horiz-adv-x="1099" d="M111 485q0 231 122.5 371.5t331.5 140.5q87 0 160 -26.5t123 -71.5t84.5 -105t50.5 -126.5t16 -137.5v-65h-782q4 -102 38 -178.5t89.5 -121t123.5 -66t148 -21.5q184 0 357 100v-115q-168 -88 -359 -88q-81 0 -153.5 17.5t-137 57t-111.5 98t-74 145t-27 192.5zM221 565 h670q-2 134 -90 232t-236 98q-151 0 -237 -85t-107 -245zM311 1253v93h488v-93h-488z" />
<glyph unicode="&#x116;" horiz-adv-x="1159" d="M217 317v1067h776v-100h-661v-512h610v-100h-610v-355q0 -110 53 -163.5t166 -53.5h477v-100h-489q-168 0 -245 80.5t-77 236.5zM551 1593v170h104v-170h-104z" />
<glyph unicode="&#x117;" horiz-adv-x="1099" d="M111 485q0 231 122.5 371.5t331.5 140.5q87 0 160 -26.5t123 -71.5t84.5 -105t50.5 -126.5t16 -137.5v-65h-782q4 -102 38 -178.5t89.5 -121t123.5 -66t148 -21.5q184 0 357 100v-115q-168 -88 -359 -88q-81 0 -153.5 17.5t-137 57t-111.5 98t-74 145t-27 192.5zM221 565 h670q-2 134 -90 232t-236 98q-151 0 -237 -85t-107 -245zM502 1223v170h104v-170h-104z" />
<glyph unicode="&#x118;" horiz-adv-x="1159" d="M217 317v1067h776v-100h-661v-512h610v-100h-610v-355q0 -110 53 -163.5t166 -53.5h477v-100h-84q-32 -28 -52 -48t-42 -49t-32.5 -60.5t-10.5 -67.5q0 -46 26 -71.5t70 -25.5q69 0 125 43v-98q-65 -37 -137 -37q-82 0 -130 49.5t-48 135.5q0 143 127 229h-301 q-168 0 -245 80.5t-77 236.5z" />
<glyph unicode="&#x119;" horiz-adv-x="1099" d="M111 485q0 231 122.5 371.5t331.5 140.5q87 0 160 -26.5t123 -71.5t84.5 -105t50.5 -126.5t16 -137.5v-65h-782q4 -102 38 -178.5t89.5 -121t123.5 -66t148 -21.5q184 0 357 100v-115q-84 -46 -168 -63q-32 -28 -52 -48t-42 -49t-32.5 -60.5t-10.5 -67.5q0 -46 27 -71.5 t71 -25.5q69 0 125 43v-98q-65 -37 -137 -37q-82 0 -130.5 49.5t-48.5 135.5q0 122 97 206q-9 0 -29 -1t-29 -1q-81 0 -153.5 17.5t-137 57t-111.5 98t-74 145t-27 192.5zM221 565h670q-2 134 -90 232t-236 98q-151 0 -237 -85t-107 -245z" />
<glyph unicode="&#x11a;" horiz-adv-x="1159" d="M217 317v1067h776v-100h-661v-512h610v-100h-610v-355q0 -110 53 -163.5t166 -53.5h477v-100h-489q-168 0 -245 80.5t-77 236.5zM358 1833h95l151 -203l152 203h94l-205 -309h-82z" />
<glyph unicode="&#x11b;" horiz-adv-x="1099" d="M111 485q0 231 122.5 371.5t331.5 140.5q87 0 160 -26.5t123 -71.5t84.5 -105t50.5 -126.5t16 -137.5v-65h-782q4 -102 38 -178.5t89.5 -121t123.5 -66t148 -21.5q184 0 357 100v-115q-168 -88 -359 -88q-81 0 -153.5 17.5t-137 57t-111.5 98t-74 145t-27 192.5zM221 565 h670q-2 134 -90 232t-236 98q-151 0 -237 -85t-107 -245zM309 1454h94l152 -203l152 203h94l-205 -309h-82z" />
<glyph unicode="&#x11c;" horiz-adv-x="1636" d="M131 692q0 148 41.5 269t112.5 203t167.5 138t203 81.5t223.5 25.5q136 0 271 -35t245 -100v-109q-111 66 -246 104t-270 38q-100 0 -189.5 -20.5t-171 -67.5t-140.5 -116.5t-93.5 -174t-34.5 -234.5q0 -285 159.5 -450.5t428.5 -165.5q279 0 481 123v417h-490v101h598 v-574q-283 -170 -591 -170q-318 0 -511.5 196.5t-193.5 520.5zM571 1524l205 309h82l205 -309h-94l-152 202l-151 -202h-95z" />
<glyph unicode="&#x11d;" horiz-adv-x="1150" d="M111 487q0 128 41.5 228t113 160.5t161 91t191.5 30.5q178 0 347 -79v-910q0 -212 -119 -317t-318 -105q-204 0 -362 92v119q65 -42 162.5 -75t197.5 -33q334 0 334 321v109q-140 -144 -328 -144q-88 0 -163.5 33t-133.5 95.5t-91 161.5t-33 222zM217 489 q0 -206 92 -308.5t240 -102.5q180 0 311 166v602q-123 49 -244 49q-64 0 -121 -14t-108.5 -45t-88.5 -77t-59 -115.5t-22 -154.5zM305 1145l205 309h82l205 -309h-95l-151 203l-152 -203h-94z" />
<glyph unicode="&#x11e;" horiz-adv-x="1636" d="M131 692q0 148 41.5 269t112.5 203t167.5 138t203 81.5t223.5 25.5q136 0 271 -35t245 -100v-109q-111 66 -246 104t-270 38q-100 0 -189.5 -20.5t-171 -67.5t-140.5 -116.5t-93.5 -174t-34.5 -234.5q0 -285 159.5 -450.5t428.5 -165.5q279 0 481 123v417h-490v101h598 v-574q-283 -170 -591 -170q-318 0 -511.5 196.5t-193.5 520.5zM541 1819h88q23 -181 188 -181q84 0 131 47.5t58 133.5h88q-9 -127 -81.5 -205t-195.5 -78q-122 0 -194.5 78t-81.5 205z" />
<glyph unicode="&#x11f;" horiz-adv-x="1150" d="M111 487q0 128 41.5 228t113 160.5t161 91t191.5 30.5q178 0 347 -79v-910q0 -212 -119 -317t-318 -105q-204 0 -362 92v119q65 -42 162.5 -75t197.5 -33q334 0 334 321v109q-140 -144 -328 -144q-88 0 -163.5 33t-133.5 95.5t-91 161.5t-33 222zM217 489 q0 -206 92 -308.5t240 -102.5q180 0 311 166v602q-123 49 -244 49q-64 0 -121 -14t-108.5 -45t-88.5 -77t-59 -115.5t-22 -154.5zM274 1440h88q23 -180 189 -180q165 0 188 180h88q-9 -127 -81.5 -205t-194.5 -78q-123 0 -195.5 78t-81.5 205z" />
<glyph unicode="&#x120;" horiz-adv-x="1636" d="M131 692q0 148 41.5 269t112.5 203t167.5 138t203 81.5t223.5 25.5q136 0 271 -35t245 -100v-109q-111 66 -246 104t-270 38q-100 0 -189.5 -20.5t-171 -67.5t-140.5 -116.5t-93.5 -174t-34.5 -234.5q0 -285 159.5 -450.5t428.5 -165.5q279 0 481 123v417h-490v101h598 v-574q-283 -170 -591 -170q-318 0 -511.5 196.5t-193.5 520.5zM764 1591v170h104v-170h-104z" />
<glyph unicode="&#x121;" horiz-adv-x="1150" d="M111 487q0 128 41.5 228t113 160.5t161 91t191.5 30.5q178 0 347 -79v-910q0 -212 -119 -317t-318 -105q-204 0 -362 92v119q65 -42 162.5 -75t197.5 -33q334 0 334 321v109q-140 -144 -328 -144q-88 0 -163.5 33t-133.5 95.5t-91 161.5t-33 222zM217 489 q0 -206 92 -308.5t240 -102.5q180 0 311 166v602q-123 49 -244 49q-64 0 -121 -14t-108.5 -45t-88.5 -77t-59 -115.5t-22 -154.5zM498 1223v170h104v-170h-104z" />
<glyph unicode="&#x122;" horiz-adv-x="1636" d="M131 692q0 148 41.5 269t112.5 203t167.5 138t203 81.5t223.5 25.5q136 0 271 -35t245 -100v-109q-111 66 -246 104t-270 38q-100 0 -189.5 -20.5t-171 -67.5t-140.5 -116.5t-93.5 -174t-34.5 -234.5q0 -285 159.5 -450.5t428.5 -165.5q279 0 481 123v417h-490v101h598 v-574q-283 -170 -591 -170q-318 0 -511.5 196.5t-193.5 520.5zM676 -410q110 66 110 183q0 53 -16 102h98q17 -52 17 -98q0 -168 -166 -262z" />
<glyph unicode="&#x123;" horiz-adv-x="1150" d="M111 487q0 128 41.5 228t113 160.5t161 91t191.5 30.5q178 0 347 -79v-910q0 -212 -119 -317t-318 -105q-204 0 -362 92v119q65 -42 162.5 -75t197.5 -33q334 0 334 321v109q-140 -144 -328 -144q-88 0 -163.5 33t-133.5 95.5t-91 161.5t-33 222zM217 489 q0 -206 92 -308.5t240 -102.5q180 0 311 166v602q-123 49 -244 49q-64 0 -121 -14t-108.5 -45t-88.5 -77t-59 -115.5t-22 -154.5zM522 1217q0 168 166 262l43 -76q-110 -66 -110 -182q0 -54 16 -103h-98q-17 52 -17 99z" />
<glyph unicode="&#x124;" horiz-adv-x="1599" d="M236 0v1384h114v-612h899v612h115v-1384h-115v672h-899v-672h-114zM553 1524l205 309h82l204 -309h-94l-151 202l-152 -202h-94z" />
<glyph unicode="&#x125;" horiz-adv-x="1157" d="M-8 1524l205 309h82l204 -309h-94l-151 202l-152 -202h-94zM186 0v1454h105v-575q149 118 330 118q160 0 262 -94.5t102 -263.5v-639h-104v633q0 129 -74 195.5t-195 66.5q-87 0 -170.5 -34t-150.5 -95v-766h-105z" />
<glyph unicode="&#x126;" horiz-adv-x="1599" d="M63 1036v94h173v254h114v-254h899v254h115v-254h174v-94h-174v-1036h-115v672h-899v-672h-114v1036h-173zM350 772h899v264h-899v-264z" />
<glyph unicode="&#x127;" horiz-adv-x="1157" d="M29 1198v92h157v164h105v-164h418v-92h-418v-319q149 118 330 118q160 0 262 -94.5t102 -263.5v-639h-104v633q0 129 -74 195.5t-195 66.5q-87 0 -170.5 -34t-150.5 -95v-766h-105v1198h-157z" />
<glyph unicode="&#x12a;" horiz-adv-x="585" d="M49 1632v92h488v-92h-488zM236 0v1384h114v-1384h-114z" />
<glyph unicode="&#x12b;" horiz-adv-x="477" d="M-6 1253v93h487v-93h-487zM186 0v973h105v-973h-105z" />
<glyph unicode="&#x12e;" horiz-adv-x="585" d="M121 -229q0 144 125 229h-10v1384h114v-1384q-32 -28 -52 -48t-42 -49t-32.5 -60.5t-10.5 -67.5q0 -46 26 -71.5t70 -25.5q69 0 125 43v-98q-65 -37 -137 -37q-80 0 -128 49.5t-48 135.5z" />
<glyph unicode="&#x12f;" horiz-adv-x="477" d="M61 -229q0 142 125 229v973h105v-973q-32 -28 -52 -48t-42 -49t-32.5 -60.5t-10.5 -67.5q0 -46 26 -71.5t70 -25.5q71 0 127 43v-98q-65 -37 -139 -37q-80 0 -128.5 50t-48.5 135zM186 1212v172h105v-172h-105z" />
<glyph unicode="&#x130;" horiz-adv-x="585" d="M236 0v1384h114v-1384h-114zM240 1593v170h104v-170h-104z" />
<glyph unicode="&#x131;" horiz-adv-x="477" d="M186 0v973h105v-973h-105z" />
<glyph unicode="&#x134;" horiz-adv-x="751" d="M33 16v109q40 -20 96 -33.5t100 -13.5q108 0 155.5 62.5t47.5 195.5v1048h115v-1052q0 -176 -83 -266.5t-233 -90.5q-115 0 -198 41zM248 1524l205 309h82l204 -309h-94l-151 202l-152 -202h-94z" />
<glyph unicode="&#x135;" horiz-adv-x="477" d="M-31 -279q59 -32 115 -32q45 0 73.5 26t28.5 84v1174h105v-1174q0 -111 -53.5 -162t-143.5 -51q-65 0 -125 29v106zM-8 1145l205 309h82l204 -309h-94l-151 203l-152 -203h-94z" />
<glyph unicode="&#x136;" horiz-adv-x="1204" d="M236 0v1384h114v-630l688 630h142l-717 -659l741 -725h-153l-701 674v-674h-114zM559 -410q111 66 111 183q0 50 -17 102h99q16 -49 16 -98q0 -168 -166 -262z" />
<glyph unicode="&#x137;" horiz-adv-x="974" d="M186 0v1454h105v-887l520 406h152l-570 -445l582 -528h-146l-538 477v-477h-105zM440 -410q111 66 111 183q0 53 -16 102h98q16 -49 16 -98q0 -168 -166 -262z" />
<glyph unicode="&#x139;" horiz-adv-x="1024" d="M217 317v1067h115v-1067q0 -110 53 -163.5t166 -53.5h430v-100h-442q-168 0 -245 80.5t-77 236.5zM231 1524l172 309h127l-204 -309h-95z" />
<glyph unicode="&#x13a;" horiz-adv-x="518" d="M170 188v1266h104v-1266q0 -54 25 -82t68 -28q71 0 127 33v-107q-63 -29 -127 -29q-92 0 -144.5 53t-52.5 160zM184 1524l172 309h127l-204 -309h-95z" />
<glyph unicode="&#x13b;" horiz-adv-x="1024" d="M217 317v1067h115v-1067q0 -110 53 -163.5t166 -53.5h430v-100h-442q-168 0 -245 80.5t-77 236.5zM504 -410q110 66 110 183q0 53 -16 102h98q17 -52 17 -98q0 -168 -166 -262z" />
<glyph unicode="&#x13c;" horiz-adv-x="518" d="M170 188v1266h104v-1266q0 -54 25 -82t68 -28q71 0 127 33v-107q-63 -29 -127 -29q-92 0 -144.5 53t-52.5 160zM205 -410q110 66 110 183q0 53 -16 102h98q17 -52 17 -98q0 -168 -166 -262z" />
<glyph unicode="&#x13d;" horiz-adv-x="1024" d="M217 317v1067h115v-1067q0 -110 53 -163.5t166 -53.5h430v-100h-442q-168 0 -245 80.5t-77 236.5zM621 1044q102 80 102 220q0 56 -18 120h106q12 -58 12 -112q0 -182 -149 -301z" />
<glyph unicode="&#x13e;" horiz-adv-x="569" d="M170 188v1266h104v-1266q0 -54 25 -82t68 -28q71 0 127 33v-107q-63 -29 -127 -29q-92 0 -144.5 53t-52.5 160zM371 1114q100 79 100 219q0 64 -16 121h102q12 -59 12 -113q0 -186 -145 -301z" />
<glyph unicode="&#x141;" horiz-adv-x="1030" d="M53 543v104l172 70v667h115v-620l438 182v-104l-438 -183v-342q0 -110 52.5 -163.5t166.5 -53.5h428v-100h-440q-169 0 -245.5 80.5t-76.5 236.5v295z" />
<glyph unicode="&#x142;" horiz-adv-x="538" d="M45 668v100l145 70v616h105v-567l182 86v-101l-182 -86v-598q0 -54 25 -82t69 -28q69 0 125 33v-107q-63 -29 -125 -29q-94 0 -146.5 53t-52.5 160v549z" />
<glyph unicode="&#x143;" horiz-adv-x="1589" d="M236 0v1384h106l905 -1214v1214h107v-1384h-107l-905 1214v-1214h-106zM729 1524l172 309h127l-205 -309h-94z" />
<glyph unicode="&#x144;" horiz-adv-x="1157" d="M186 0v973h97l8 -94q149 118 330 118q160 0 262 -94.5t102 -263.5v-639h-104v633q0 129 -74 195.5t-195 66.5q-87 0 -170.5 -34t-150.5 -95v-766h-105zM528 1145l172 309h127l-204 -309h-95z" />
<glyph unicode="&#x145;" horiz-adv-x="1589" d="M236 0v1384h106l905 -1214v1214h107v-1384h-107l-905 1214v-1214h-106zM664 -410q110 66 110 183q0 53 -16 102h98q16 -49 16 -98q0 -169 -165 -262z" />
<glyph unicode="&#x146;" horiz-adv-x="1157" d="M186 0v973h97l8 -94q149 118 330 118q160 0 262 -94.5t102 -263.5v-639h-104v633q0 129 -74 195.5t-195 66.5q-87 0 -170.5 -34t-150.5 -95v-766h-105zM438 -410q111 66 111 183q0 50 -17 102h99q16 -49 16 -98q0 -168 -166 -262z" />
<glyph unicode="&#x147;" horiz-adv-x="1589" d="M236 0v1384h106l905 -1214v1214h107v-1384h-107l-905 1214v-1214h-106zM549 1833h94l152 -203l151 203h94l-204 -309h-82z" />
<glyph unicode="&#x148;" horiz-adv-x="1157" d="M186 0v973h97l8 -94q149 118 330 118q160 0 262 -94.5t102 -263.5v-639h-104v633q0 129 -74 195.5t-195 66.5q-87 0 -170.5 -34t-150.5 -95v-766h-105zM332 1454h94l152 -203l151 203h94l-205 -309h-81z" />
<glyph unicode="&#x14c;" horiz-adv-x="1675" d="M131 692q0 325 193.5 521t513.5 196q319 0 512.5 -196t193.5 -521t-193.5 -521t-512.5 -196q-320 0 -513.5 196t-193.5 521zM250 692q0 -283 159 -448.5t429 -165.5t427.5 165.5t157.5 448.5t-157.5 449t-427.5 166t-429 -166t-159 -449zM594 1630v92h487v-92h-487z" />
<glyph unicode="&#x14d;" horiz-adv-x="1212" d="M111 485q0 228 138 370t357 142t357.5 -142t138.5 -370t-138.5 -369t-357.5 -141t-357 141t-138 369zM217 485q0 -191 107 -299t282 -108t281 107.5t106 299.5t-106 301t-281 109t-282 -109t-107 -301zM362 1253v93h488v-93h-488z" />
<glyph unicode="&#x150;" horiz-adv-x="1675" d="M131 692q0 325 193.5 521t513.5 196q319 0 512.5 -196t193.5 -521t-193.5 -521t-512.5 -196q-320 0 -513.5 196t-193.5 521zM250 692q0 -283 159 -448.5t429 -165.5t427.5 165.5t157.5 448.5t-157.5 449t-427.5 166t-429 -166t-159 -449zM655 1524l168 309h121l-196 -309 h-93zM885 1524l221 309h127l-254 -309h-94z" />
<glyph unicode="&#x151;" horiz-adv-x="1212" d="M111 485q0 228 138 370t357 142t357.5 -142t138.5 -370t-138.5 -369t-357.5 -141t-357 141t-138 369zM217 485q0 -191 107 -299t282 -108t281 107.5t106 299.5t-106 301t-281 109t-282 -109t-107 -301zM449 1145l167 309h121l-196 -309h-92zM678 1145l221 309h127 l-254 -309h-94z" />
<glyph unicode="&#x152;" horiz-adv-x="2365" d="M131 692q0 325 194.5 521t514.5 196q206 0 354 -86t229 -244v305h777v-100h-662v-512h610v-100h-610v-355q0 -110 53 -163.5t166 -53.5h477v-100h-487q-168 0 -244.5 76.5t-79.5 228.5q-81 -158 -229 -244t-354 -86q-320 0 -514.5 196t-194.5 521zM250 692 q0 -283 159 -448.5t429 -165.5t427.5 165.5t157.5 448.5t-157.5 449t-427.5 166t-429 -166t-159 -449z" />
<glyph unicode="&#x153;" horiz-adv-x="1974" d="M111 485q0 228 138 370t357 142q151 0 264 -73.5t168 -202.5q48 130 151 203t251 73q87 0 160 -26.5t123 -71.5t84.5 -105t50.5 -126.5t16 -137.5v-65h-782q6 -184 107.5 -285.5t270.5 -101.5q184 0 357 100v-115q-168 -88 -359 -88q-155 0 -265.5 73.5t-162.5 205.5 q-55 -131 -168.5 -205t-265.5 -74q-219 0 -357 141t-138 369zM217 485q0 -191 107 -299t282 -108t281 107.5t106 299.5t-106 301t-281 109t-282 -109t-107 -301zM1096 565h669q-2 134 -89.5 232t-235.5 98q-152 0 -238.5 -85.5t-105.5 -244.5z" />
<glyph unicode="&#x154;" horiz-adv-x="1259" d="M236 0v1384h387q242 0 372.5 -110t130.5 -307q0 -172 -97.5 -275.5t-280.5 -134.5l434 -557h-135l-426 549h-271v-549h-114zM350 649h273q184 0 284.5 81.5t100.5 236.5t-100.5 236t-284.5 81h-273v-635zM606 1524l172 309h127l-205 -309h-94z" />
<glyph unicode="&#x155;" horiz-adv-x="731" d="M186 0v973h97l8 -154q69 76 171.5 127t205.5 51v-112q-91 0 -195 -49.5t-182 -130.5v-705h-105zM336 1145l172 309h127l-205 -309h-94z" />
<glyph unicode="&#x158;" horiz-adv-x="1259" d="M236 0v1384h387q242 0 372.5 -110t130.5 -307q0 -172 -97.5 -275.5t-280.5 -134.5l434 -557h-135l-426 549h-271v-549h-114zM350 649h273q184 0 284.5 81.5t100.5 236.5t-100.5 236t-284.5 81h-273v-635zM418 1833h94l152 -203l151 203h94l-204 -309h-82z" />
<glyph unicode="&#x159;" horiz-adv-x="731" d="M186 0v973h97l8 -154q69 76 171.5 127t205.5 51v-112q-91 0 -195 -49.5t-182 -130.5v-705h-105zM186 1454h95l151 -203l152 203h94l-205 -309h-82z" />
<glyph unicode="&#x15a;" horiz-adv-x="1144" d="M143 80v108q182 -110 396 -110q57 0 107.5 9t96 30.5t78 53.5t51.5 81t19 110q0 63 -25.5 110t-68.5 76.5t-99 52t-118 41t-124 38t-118 48.5t-99 67t-68.5 99t-25.5 140q0 93 38 166t103 118t144.5 68t167.5 23q217 0 369 -84v-108q-169 90 -371 90q-64 0 -121 -15 t-106 -46t-78 -84.5t-29 -123.5q0 -60 25.5 -106t68.5 -74.5t99 -51t118 -40.5t124 -38t118 -49.5t99 -68.5t68.5 -100.5t25.5 -140.5q0 -102 -39.5 -180t-107 -123.5t-150 -68t-176.5 -22.5q-105 0 -211.5 28.5t-180.5 76.5zM514 1524l172 309h127l-205 -309h-94z" />
<glyph unicode="&#x15b;" horiz-adv-x="950" d="M117 715q0 135 107 208.5t274 73.5q82 0 174 -20t141 -49v-115q-57 37 -144 59.5t-173 22.5q-123 0 -199 -42.5t-76 -131.5q0 -53 34 -87.5t88 -52.5t119.5 -31.5t131.5 -32t120 -46t88 -81t34 -130.5q0 -139 -103 -212t-268 -73q-195 0 -346 91v112q162 -100 346 -100 q126 0 196 43.5t70 132.5q0 57 -34 94t-88 55.5t-119.5 32.5t-131 31t-119.5 43t-88 78t-34 127zM406 1145l172 309h127l-205 -309h-94z" />
<glyph unicode="&#x15c;" horiz-adv-x="1144" d="M143 80v108q182 -110 396 -110q57 0 107.5 9t96 30.5t78 53.5t51.5 81t19 110q0 63 -25.5 110t-68.5 76.5t-99 52t-118 41t-124 38t-118 48.5t-99 67t-68.5 99t-25.5 140q0 93 38 166t103 118t144.5 68t167.5 23q217 0 369 -84v-108q-169 90 -371 90q-64 0 -121 -15 t-106 -46t-78 -84.5t-29 -123.5q0 -60 25.5 -106t68.5 -74.5t99 -51t118 -40.5t124 -38t118 -49.5t99 -68.5t68.5 -100.5t25.5 -140.5q0 -102 -39.5 -180t-107 -123.5t-150 -68t-176.5 -22.5q-105 0 -211.5 28.5t-180.5 76.5zM346 1524l205 309h82l205 -309h-95l-151 202 l-152 -202h-94z" />
<glyph unicode="&#x15d;" horiz-adv-x="950" d="M117 715q0 135 107 208.5t274 73.5q82 0 174 -20t141 -49v-115q-57 37 -144 59.5t-173 22.5q-123 0 -199 -42.5t-76 -131.5q0 -53 34 -87.5t88 -52.5t119.5 -31.5t131.5 -32t120 -46t88 -81t34 -130.5q0 -139 -103 -212t-268 -73q-195 0 -346 91v112q162 -100 346 -100 q126 0 196 43.5t70 132.5q0 57 -34 94t-88 55.5t-119.5 32.5t-131 31t-119.5 43t-88 78t-34 127zM229 1145l205 309h82l205 -309h-94l-152 203l-151 -203h-95z" />
<glyph unicode="&#x15e;" horiz-adv-x="1144" d="M143 80v108q182 -110 396 -110q72 0 132.5 15t111 47t79.5 89t29 133q0 63 -25.5 110t-68.5 76.5t-99 52t-118 41t-124 38t-118 48.5t-99 67t-68.5 99t-25.5 140q0 93 38 166t103 118t144.5 68t167.5 23q217 0 369 -84v-108q-169 90 -373 90q-64 0 -121 -15t-105.5 -46 t-77 -84.5t-28.5 -123.5q0 -60 25.5 -106t68.5 -74.5t99 -51t118 -40.5t124 -38t118 -49.5t99 -68.5t68.5 -100.5t25.5 -140.5q0 -87 -29 -156.5t-80.5 -115.5t-116 -74t-141.5 -39l-25 -90q82 0 123 -41t41 -113q0 -69 -49 -111.5t-133 -42.5q-62 0 -117 25v94 q17 -10 52 -19.5t67 -9.5q86 0 86 66q0 39 -24.5 52t-71.5 13h-82l47 168h-23q-104 0 -208.5 28.5t-180.5 76.5z" />
<glyph unicode="&#x15f;" horiz-adv-x="950" d="M117 715q0 135 107 208.5t274 73.5q82 0 174 -20t141 -49v-115q-57 37 -144 59.5t-173 22.5q-79 0 -138.5 -17t-98 -57t-38.5 -100q0 -53 34 -87.5t88 -52.5t119.5 -31.5t131.5 -32t120 -46t88 -81t34 -130.5q0 -128 -88.5 -200t-233.5 -83l-22 -83q81 0 122 -41.5 t41 -112.5q0 -69 -49.5 -111.5t-134.5 -42.5q-58 0 -117 25v94q56 -29 119 -29q88 0 88 66q0 39 -25.5 52t-72.5 13h-82l47 170q-171 6 -309 89v112q162 -100 346 -100q126 0 196 43.5t70 132.5q0 57 -34 94t-88 55.5t-119.5 32.5t-131 31t-119.5 43t-88 78t-34 127z" />
<glyph unicode="&#x160;" horiz-adv-x="1144" d="M143 80v108q182 -110 396 -110q57 0 107.5 9t96 30.5t78 53.5t51.5 81t19 110q0 63 -25.5 110t-68.5 76.5t-99 52t-118 41t-124 38t-118 48.5t-99 67t-68.5 99t-25.5 140q0 93 38 166t103 118t144.5 68t167.5 23q217 0 369 -84v-108q-169 90 -371 90q-64 0 -121 -15 t-106 -46t-78 -84.5t-29 -123.5q0 -60 25.5 -106t68.5 -74.5t99 -51t118 -40.5t124 -38t118 -49.5t99 -68.5t68.5 -100.5t25.5 -140.5q0 -102 -39.5 -180t-107 -123.5t-150 -68t-176.5 -22.5q-105 0 -211.5 28.5t-180.5 76.5zM346 1833h94l152 -203l151 203h95l-205 -309 h-82z" />
<glyph unicode="&#x161;" horiz-adv-x="950" d="M117 715q0 135 107 208.5t274 73.5q82 0 174 -20t141 -49v-115q-57 37 -144 59.5t-173 22.5q-123 0 -199 -42.5t-76 -131.5q0 -53 34 -87.5t88 -52.5t119.5 -31.5t131.5 -32t120 -46t88 -81t34 -130.5q0 -139 -103 -212t-268 -73q-195 0 -346 91v112q162 -100 346 -100 q126 0 196 43.5t70 132.5q0 57 -34 94t-88 55.5t-119.5 32.5t-131 31t-119.5 43t-88 78t-34 127zM229 1454h95l151 -203l152 203h94l-205 -309h-82z" />
<glyph unicode="&#x162;" horiz-adv-x="1177" d="M43 1284v100h1090v-100h-488v-1284h-115v1284h-487zM440 -410q111 66 111 183q0 53 -16 102h98q16 -49 16 -98q0 -168 -166 -262z" />
<glyph unicode="&#x163;" horiz-adv-x="669" d="M51 874v99h144l16 309h88v-309h309v-99h-309v-620q0 -98 42 -137t118 -39q86 0 168 51v-109q-79 -45 -181 -45q-112 0 -181.5 69t-69.5 212v618h-144zM260 -410q111 66 111 183q0 50 -17 102h99q16 -49 16 -98q0 -168 -166 -262z" />
<glyph unicode="&#x164;" horiz-adv-x="1177" d="M43 1284v100h1090v-100h-488v-1284h-115v1284h-487zM342 1833h94l152 -203l151 203h95l-205 -309h-82z" />
<glyph unicode="&#x165;" horiz-adv-x="669" d="M51 874v99h144l16 309h88v-309h309v-99h-309v-620q0 -98 42 -137t118 -39q86 0 168 51v-109q-79 -45 -181 -45q-112 0 -181.5 69t-69.5 212v618h-144zM393 1139q101 79 101 219q0 60 -17 121h103q12 -59 12 -113q0 -185 -146 -301z" />
<glyph unicode="&#x16a;" horiz-adv-x="1409" d="M201 479v905h114v-901q0 -193 108 -299t282 -106q175 0 283 106t108 299v901h112v-905q0 -123 -40 -220.5t-109.5 -158.5t-159.5 -93t-194 -32q-103 0 -193 32t-160 93t-110.5 158.5t-40.5 220.5zM459 1630v92h487v-92h-487z" />
<glyph unicode="&#x16b;" horiz-adv-x="1122" d="M166 362v611h104v-602q0 -154 65 -223.5t191 -69.5q172 0 305 166v729h105v-973h-98l-7 117q-70 -68 -144.5 -105t-172.5 -37q-160 0 -254 100t-94 287zM307 1253v93h488v-93h-488z" />
<glyph unicode="&#x16c;" horiz-adv-x="1409" d="M201 479v905h114v-901q0 -193 108 -299t282 -106q175 0 283 106t108 299v901h112v-905q0 -123 -40 -220.5t-109.5 -158.5t-159.5 -93t-194 -32q-103 0 -193 32t-160 93t-110.5 158.5t-40.5 220.5zM426 1817h88q23 -181 188 -181q84 0 131 47.5t58 133.5h88 q-9 -127 -81.5 -205t-195.5 -78q-122 0 -194.5 78t-81.5 205z" />
<glyph unicode="&#x16d;" horiz-adv-x="1122" d="M166 362v611h104v-602q0 -154 65 -223.5t191 -69.5q172 0 305 166v729h105v-973h-98l-7 117q-70 -68 -144.5 -105t-172.5 -37q-160 0 -254 100t-94 287zM274 1440h88q23 -180 189 -180q165 0 188 180h88q-9 -127 -81.5 -205t-194.5 -78q-123 0 -195.5 78t-81.5 205z" />
<glyph unicode="&#x16e;" horiz-adv-x="1409" d="M201 479v905h114v-901q0 -193 108 -299t282 -106q175 0 283 106t108 299v901h112v-905q0 -123 -40 -220.5t-109.5 -158.5t-159.5 -93t-194 -32q-103 0 -193 32t-160 93t-110.5 158.5t-40.5 220.5zM496 1679q0 84 60.5 132.5t145.5 48.5t146 -48.5t61 -132.5 q0 -86 -61 -135t-146 -49t-145.5 49t-60.5 135zM582 1677q0 -50 32.5 -77t87.5 -27t87 27t32 77t-32 77.5t-87 27.5t-87.5 -27.5t-32.5 -77.5z" />
<glyph unicode="&#x16f;" horiz-adv-x="1122" d="M166 362v611h104v-602q0 -154 65 -223.5t191 -69.5q172 0 305 166v729h105v-973h-98l-7 117q-70 -68 -144.5 -105t-172.5 -37q-160 0 -254 100t-94 287zM344 1298q0 84 61 132.5t146 48.5t146 -48.5t61 -132.5q0 -86 -61 -135t-146 -49t-146 49t-61 135zM430 1296 q0 -50 33 -77t88 -27t87 27t32 77t-32 77.5t-87 27.5t-88 -27.5t-33 -77.5z" />
<glyph unicode="&#x170;" horiz-adv-x="1409" d="M201 479v905h114v-901q0 -193 108 -299t282 -106q175 0 283 106t108 299v901h112v-905q0 -123 -40 -220.5t-109.5 -158.5t-159.5 -93t-194 -32q-103 0 -193 32t-160 93t-110.5 158.5t-40.5 220.5zM518 1524l168 309h121l-197 -309h-92zM748 1524l221 309h127l-254 -309 h-94z" />
<glyph unicode="&#x171;" horiz-adv-x="1122" d="M166 362v611h104v-602q0 -154 65 -223.5t191 -69.5q172 0 305 166v729h105v-973h-98l-7 117q-70 -68 -144.5 -105t-172.5 -37q-160 0 -254 100t-94 287zM373 1145l168 309h121l-197 -309h-92zM602 1145l221 309h127l-254 -309h-94z" />
<glyph unicode="&#x172;" horiz-adv-x="1409" d="M201 479v905h114v-901q0 -193 108 -299t282 -106q175 0 283 106t108 299v901h112v-905q0 -110 -33 -199.5t-91 -150t-132 -97.5t-161 -50q-55 -48 -86 -96.5t-31 -110.5q0 -46 26.5 -71.5t71.5 -25.5q69 0 125 43v-98q-65 -37 -137 -37q-82 0 -130 49.5t-48 135.5 q0 120 94 204q-96 5 -180.5 39t-151 95t-105 156.5t-38.5 213.5z" />
<glyph unicode="&#x173;" horiz-adv-x="1122" d="M166 362v611h104v-602q0 -154 65 -223.5t191 -69.5q172 0 305 166v729h105v-973q-32 -28 -52 -48t-42 -49t-32.5 -60.5t-10.5 -67.5q0 -46 27 -71.5t71 -25.5q69 0 125 43v-98q-65 -37 -137 -37q-82 0 -130 49.5t-48 135.5q0 70 35 129t96 100l-7 117 q-70 -68 -144.5 -105t-172.5 -37q-160 0 -254 99t-94 288z" />
<glyph unicode="&#x178;" horiz-adv-x="1142" d="M0 1384h129l444 -712l449 712h121l-516 -825v-559h-115v559zM346 1602v170h105v-170h-105zM692 1602v170h105v-170h-105z" />
<glyph unicode="&#x179;" horiz-adv-x="1200" d="M88 0v98l879 1186h-861v100h998v-100l-879 -1184h897v-100h-1034zM526 1524l172 309h127l-204 -309h-95z" />
<glyph unicode="&#x17a;" horiz-adv-x="933" d="M94 0v78l598 799h-583v96h720v-78l-604 -799h617v-96h-748zM418 1145l172 309h127l-205 -309h-94z" />
<glyph unicode="&#x17b;" horiz-adv-x="1200" d="M88 0v98l879 1186h-861v100h998v-100l-879 -1184h897v-100h-1034zM553 1591v170h104v-170h-104z" />
<glyph unicode="&#x17c;" horiz-adv-x="933" d="M94 0v78l598 799h-583v96h720v-78l-604 -799h617v-96h-748zM414 1223v170h104v-170h-104z" />
<glyph unicode="&#x17d;" horiz-adv-x="1200" d="M88 0v98l879 1186h-861v100h998v-100l-879 -1184h897v-100h-1034zM360 1833h95l151 -203l152 203h94l-205 -309h-82z" />
<glyph unicode="&#x17e;" horiz-adv-x="933" d="M94 0v78l598 799h-583v96h720v-78l-604 -799h617v-96h-748zM229 1454h95l151 -203l152 203h94l-205 -309h-82z" />
<glyph unicode="&#x218;" horiz-adv-x="1144" d="M143 80v108q182 -110 396 -110q57 0 107.5 9t96 30.5t78 53.5t51.5 81t19 110q0 63 -25.5 110t-68.5 76.5t-99 52t-118 41t-124 38t-118 48.5t-99 67t-68.5 99t-25.5 140q0 93 38 166t103 118t144.5 68t167.5 23q217 0 369 -84v-108q-169 90 -371 90q-64 0 -121 -15 t-106 -46t-78 -84.5t-29 -123.5q0 -60 25.5 -106t68.5 -74.5t99 -51t118 -40.5t124 -38t118 -49.5t99 -68.5t68.5 -100.5t25.5 -140.5q0 -102 -39.5 -180t-107 -123.5t-150 -68t-176.5 -22.5q-105 0 -211.5 28.5t-180.5 76.5zM473 -410q111 66 111 183q0 50 -17 102h99 q16 -49 16 -98q0 -168 -166 -262z" />
<glyph unicode="&#x219;" horiz-adv-x="950" d="M117 715q0 135 107 208.5t274 73.5q82 0 174 -20t141 -49v-115q-57 37 -144 59.5t-173 22.5q-123 0 -199 -42.5t-76 -131.5q0 -53 34 -87.5t88 -52.5t119.5 -31.5t131.5 -32t120 -46t88 -81t34 -130.5q0 -139 -103 -212t-268 -73q-195 0 -346 91v112q162 -100 346 -100 q126 0 196 43.5t70 132.5q0 57 -34 94t-88 55.5t-119.5 32.5t-131 31t-119.5 43t-88 78t-34 127zM317 -410q111 66 111 183q0 53 -16 102h98q16 -49 16 -98q0 -168 -166 -262z" />
<glyph unicode="&#x2c6;" horiz-adv-x="1044" d="M276 1145l205 309h82l205 -309h-94l-152 203l-151 -203h-95z" />
<glyph unicode="&#x2da;" horiz-adv-x="1044" d="M315 1300q0 84 61 132.5t146 48.5t146 -48.5t61 -132.5q0 -86 -61 -135t-146 -49t-146 49t-61 135zM401 1298q0 -50 33 -77t88 -27t87 27t32 77t-32 77.5t-87 27.5t-88 -27.5t-33 -77.5z" />
<glyph unicode="&#x2dc;" horiz-adv-x="1044" d="M240 1188q0 100 38.5 162.5t118.5 62.5q35 0 74.5 -21t68 -45.5t60 -45.5t53.5 -21q66 0 66 129h84q0 -100 -39 -162.5t-119 -62.5q-36 0 -73 21t-63 45.5t-59 45.5t-61 21q-65 0 -65 -129h-84z" />
<glyph unicode="&#x386;" horiz-adv-x="1226" d="M0 0l559 1384h119l549 -1384h-119l-158 393h-678l-153 -393h-119zM154 1075l118 309h111l-152 -309h-77zM315 496h596l-299 753z" />
<glyph unicode="&#x388;" horiz-adv-x="1251" d="M0 1075l121 309h106l-149 -309h-78zM309 317v1067h776v-100h-661v-512h610v-100h-610v-355q0 -110 53 -163.5t166 -53.5h477v-100h-489q-168 0 -245 80.5t-77 236.5z" />
<glyph unicode="&#x389;" horiz-adv-x="1675" d="M0 1075l121 309h106l-149 -309h-78zM311 0v1384h115v-612h899v612h115v-1384h-115v672h-899v-672h-115z" />
<glyph unicode="&#x38a;" horiz-adv-x="659" d="M0 1075l121 309h106l-149 -309h-78zM311 0v1384h115v-1384h-115z" />
<glyph unicode="&#x38c;" horiz-adv-x="1675" d="M0 1075l121 309h106l-149 -309h-78zM131 692q0 325 193.5 521t513.5 196q319 0 512.5 -196t193.5 -521t-193.5 -521t-512.5 -196q-320 0 -513.5 196t-193.5 521zM250 692q0 -283 159 -448.5t429 -165.5t427.5 165.5t157.5 448.5t-157.5 449t-427.5 166t-429 -166 t-159 -449z" />
<glyph unicode="&#x38e;" horiz-adv-x="1398" d="M0 1075l121 309h106l-149 -309h-78zM256 1384h129l444 -712l449 712h121l-516 -825v-559h-115v559z" />
<glyph unicode="&#x38f;" horiz-adv-x="1675" d="M-6 1075l119 309h110l-151 -309h-78zM111 0v100h395q-76 44 -139.5 100.5t-118.5 133t-86 178t-31 217.5q0 312 194 496t513 184q210 0 369.5 -82t248 -236.5t88.5 -361.5q0 -116 -31 -217.5t-86 -178t-119 -133t-141 -100.5h398v-100h-559v94q77 51 132.5 93.5t113 102 t93 121t58 144t22.5 176.5q0 267 -158 421.5t-429 154.5q-269 0 -428.5 -155t-159.5 -421q0 -94 23 -176.5t58.5 -144t93.5 -121.5t112 -102t131 -93v-94h-557z" />
<glyph unicode="&#x390;" horiz-adv-x="518" d="M-49 1219v172h98v-172h-98zM76 1145l172 309h127l-205 -309h-94zM170 188v785h104v-785q0 -54 25 -82t68 -28q71 0 127 33v-107q-63 -29 -127 -29q-92 0 -144.5 53t-52.5 160zM403 1219v172h101v-172h-101z" />
<glyph unicode="&#x391;" horiz-adv-x="1226" d="M0 0l559 1384h119l549 -1384h-119l-158 393h-678l-153 -393h-119zM315 496h596l-299 753z" />
<glyph unicode="&#x392;" horiz-adv-x="1226" d="M236 0v1384h348q249 0 373 -91t124 -261q0 -71 -23 -129t-62.5 -96t-84 -62.5t-94.5 -37.5q130 -26 214.5 -107.5t84.5 -220.5q0 -181 -143 -280t-404 -99h-333zM350 100h223q194 0 308 70t114 205q0 128 -109 203t-306 75h-230v-553zM350 754h223q180 0 284 72.5 t104 205.5q0 130 -95 191t-280 61h-236v-530z" />
<glyph unicode="&#x393;" horiz-adv-x="1019" d="M233 0v1384h758v-100h-643v-1284h-115z" />
<glyph unicode="&#x394;" horiz-adv-x="1198" d="M23 0v92l518 1292h118l517 -1290v-94h-1153zM141 104h908l-453 1145z" />
<glyph unicode="&#x395;" horiz-adv-x="1159" d="M217 317v1067h776v-100h-661v-512h610v-100h-610v-355q0 -110 53 -163.5t166 -53.5h477v-100h-489q-168 0 -245 80.5t-77 236.5z" />
<glyph unicode="&#x396;" horiz-adv-x="1200" d="M88 0v98l879 1186h-861v100h998v-100l-879 -1184h897v-100h-1034z" />
<glyph unicode="&#x397;" horiz-adv-x="1597" d="M236 0v1384h114v-612h899v612h115v-1384h-115v672h-899v-672h-114z" />
<glyph unicode="&#x398;" horiz-adv-x="1675" d="M131 692q0 325 193.5 521t513.5 196q319 0 512.5 -196t193.5 -521t-193.5 -521t-512.5 -196q-320 0 -513.5 196t-193.5 521zM250 692q0 -283 159 -448.5t429 -165.5t427.5 165.5t157.5 448.5t-157.5 449t-427.5 166t-429 -166t-159 -449zM489 672v100h695v-100h-695z" />
<glyph unicode="&#x399;" horiz-adv-x="583" d="M236 0v1384h114v-1384h-114z" />
<glyph unicode="&#x39a;" horiz-adv-x="1204" d="M236 0v1384h114v-630l688 630h142l-717 -659l741 -725h-153l-701 674v-674h-114z" />
<glyph unicode="&#x39b;" horiz-adv-x="1226" d="M0 0l563 1384h105l559 -1384h-125l-494 1233l-493 -1233h-115z" />
<glyph unicode="&#x39c;" horiz-adv-x="1916" d="M236 0v1384h131l591 -997l592 997h133v-1384h-114v1206l-553 -936h-113l-553 936v-1206h-114z" />
<glyph unicode="&#x39d;" horiz-adv-x="1589" d="M236 0v1384h106l905 -1214v1214h107v-1384h-107l-905 1214v-1214h-106z" />
<glyph unicode="&#x39e;" horiz-adv-x="1267" d="M117 0v100h1034v-100h-1034zM135 1284v100h995v-100h-995zM207 664v102h854v-102h-854z" />
<glyph unicode="&#x39f;" horiz-adv-x="1675" d="M131 692q0 325 193.5 521t513.5 196q319 0 512.5 -196t193.5 -521t-193.5 -521t-512.5 -196q-320 0 -513.5 196t-193.5 521zM250 692q0 -283 159 -448.5t429 -165.5t427.5 165.5t157.5 448.5t-157.5 449t-427.5 166t-429 -166t-159 -449z" />
<glyph unicode="&#x3a0;" horiz-adv-x="1536" d="M236 0v1384h1064v-1384h-114v1278h-836v-1278h-114z" />
<glyph unicode="&#x3a1;" horiz-adv-x="1239" d="M236 0v1384h387q242 0 372.5 -110t130.5 -307q0 -201 -132 -309.5t-371 -108.5h-273v-549h-114zM350 649h273q184 0 284.5 81.5t100.5 236.5t-100.5 236t-284.5 81h-273v-635z" />
<glyph unicode="&#x3a3;" d="M133 0v100l510 586l-510 598v100h911v-100h-772l508 -594l-508 -590h787v-100h-926z" />
<glyph unicode="&#x3a4;" horiz-adv-x="1177" d="M43 1284v100h1090v-100h-488v-1284h-115v1284h-487z" />
<glyph unicode="&#x3a5;" horiz-adv-x="1142" d="M0 1384h129l444 -712l449 712h121l-516 -825v-559h-115v559z" />
<glyph unicode="&#x3a6;" horiz-adv-x="1656" d="M121 692q0 266 178 431t473 177v154h115v-154q293 -12 471 -177t178 -431q0 -267 -178 -432.5t-471 -177.5v-152h-115v152q-295 12 -473 177t-178 433zM240 692q0 -220 144 -357t388 -147v1006q-244 -10 -388 -147t-144 -355zM887 188q244 10 387 147.5t143 356.5 q0 218 -143.5 355t-386.5 147v-1006z" />
<glyph unicode="&#x3a7;" horiz-adv-x="1222" d="M27 0l518 696l-512 688h139l440 -598l443 598h135l-512 -686l518 -698h-139l-447 608l-446 -608h-137z" />
<glyph unicode="&#x3a8;" horiz-adv-x="1456" d="M135 973v411h113v-411q0 -102 33 -181.5t91 -130t133 -79t165 -33.5v835h114v-835q90 5 165 33.5t134 79t92 130t33 181.5v411h111v-411q0 -128 -41.5 -227.5t-115 -163t-169 -99t-209.5 -43.5v-440h-114v440q-114 8 -209 43.5t-169 99t-115.5 163.5t-41.5 227z" />
<glyph unicode="&#x3a9;" horiz-adv-x="1675" d="M111 0v100h395q-76 44 -139.5 100.5t-118.5 133t-86 178t-31 217.5q0 312 194 496t513 184q210 0 369.5 -82t248 -236.5t88.5 -361.5q0 -116 -31 -217.5t-86 -178t-119 -133t-141 -100.5h398v-100h-559v94q77 51 132.5 93.5t113 102t93 121t58 144t22.5 176.5 q0 267 -158 421.5t-429 154.5q-269 0 -428.5 -155t-159.5 -421q0 -94 23 -176.5t58.5 -144t93.5 -121.5t112 -102t131 -93v-94h-557z" />
<glyph unicode="&#x3aa;" horiz-adv-x="583" d="M70 1634v170h104v-170h-104zM236 0v1384h114v-1384h-114zM416 1634v170h104v-170h-104z" />
<glyph unicode="&#x3ab;" horiz-adv-x="1142" d="M0 1384h129l444 -712l449 712h121l-516 -825v-559h-115v559zM346 1608v170h105v-170h-105zM692 1608v170h105v-170h-105z" />
<glyph unicode="&#x3ac;" horiz-adv-x="1177" d="M111 481q0 224 112 370t301 146q133 0 233.5 -81t131.5 -207l4 264h98q-1 -52 -10.5 -341t-9.5 -435q0 -119 98 -119q31 0 55 6v-100q-44 -9 -63 -9q-182 0 -182 228v20q-44 -114 -135 -181t-214 -67q-87 0 -162.5 33.5t-133 96t-90.5 159.5t-33 217zM217 485 q0 -206 90 -306.5t236 -100.5q137 0 229 110.5t92 292.5v15q0 179 -97 289t-237 110q-143 0 -228 -108t-85 -302zM500 1145l172 309h127l-205 -309h-94z" />
<glyph unicode="&#x3ad;" horiz-adv-x="995" d="M117 264q0 57 20 102t54 73.5t72.5 45.5t80.5 23q-40 8 -73.5 23t-65.5 41t-50 67.5t-18 95.5q0 122 99.5 192t281.5 70q85 0 180 -15t154 -44v-113q-57 32 -151 51t-173 19q-135 0 -208.5 -42.5t-73.5 -127.5t76 -127.5t206 -42.5h172v-100h-176q-146 0 -222.5 -45 t-76.5 -134q0 -99 78.5 -148.5t220.5 -49.5q84 0 179.5 23.5t158.5 60.5v-113q-65 -34 -162.5 -54t-181.5 -20q-185 0 -293 76t-108 213zM438 1145l172 309h127l-205 -309h-94z" />
<glyph unicode="&#x3ae;" horiz-adv-x="1157" d="M186 0v973h97l8 -94q149 118 330 118q160 0 262 -94.5t102 -263.5v-1028h-104v1022q0 129 -74 195.5t-195 66.5q-87 0 -170.5 -34t-150.5 -95v-766h-105zM528 1145l172 309h127l-204 -309h-95z" />
<glyph unicode="&#x3af;" horiz-adv-x="518" d="M170 188v785h104v-785q0 -54 25 -82t68 -28q71 0 127 33v-107q-63 -29 -127 -29q-92 0 -144.5 53t-52.5 160zM178 1145l172 309h127l-205 -309h-94z" />
<glyph unicode="&#x3b0;" horiz-adv-x="1089" d="M145 416v557h105v-533q0 -162 79.5 -262t225.5 -100q102 0 173 55t103.5 142.5t32.5 199.5q0 143 -51.5 277t-146.5 221h120q86 -76 134.5 -211t48.5 -281q0 -103 -25.5 -193t-75 -160.5t-130 -111.5t-181.5 -41q-193 0 -302.5 124t-109.5 317zM264 1219v172h98v-172h-98 zM389 1145l172 309h127l-205 -309h-94zM717 1219v172h100v-172h-100z" />
<glyph unicode="&#x3b1;" horiz-adv-x="1177" d="M111 481q0 224 112 370t301 146q133 0 233.5 -81t131.5 -207l4 264h98q-1 -52 -10.5 -341t-9.5 -435q0 -119 98 -119q31 0 55 6v-100q-44 -9 -63 -9q-182 0 -182 228v20q-44 -114 -135 -181t-214 -67q-87 0 -162.5 33.5t-133 96t-90.5 159.5t-33 217zM217 485 q0 -206 90 -306.5t236 -100.5q137 0 229 110.5t92 292.5v15q0 179 -97 289t-237 110q-143 0 -228 -108t-85 -302z" />
<glyph unicode="&#x3b2;" horiz-adv-x="1138" d="M184 -391v1454q0 137 55 232.5t143.5 139.5t201.5 44q172 0 284.5 -99t112.5 -280q0 -69 -16 -126t-42 -95.5t-62 -68t-72 -46t-76 -25.5q50 -5 101.5 -28t100.5 -65.5t80 -117t31 -168.5q0 -99 -34 -175t-91.5 -120.5t-127.5 -67t-148 -22.5q-93 0 -184.5 36t-151.5 91 v-493h-105zM289 223q54 -62 142 -103.5t185 -41.5q131 0 216.5 73t85.5 218q0 153 -98 234t-267 81h-37v100h35q142 0 234 82.5t92 231.5q0 130 -83.5 204t-207.5 74q-128 0 -212.5 -81.5t-84.5 -231.5v-840z" />
<glyph unicode="&#x3b3;" horiz-adv-x="940" d="M6 973h109l352 -842q273 486 317 842h103q-42 -403 -377 -955v-407h-104v407z" />
<glyph unicode="&#x3b4;" horiz-adv-x="1198" d="M102 469q0 125 54 227t139 166t197 103q-84 47 -127 103.5t-43 150.5q0 121 92.5 190.5t232.5 69.5q144 0 250 -64v-106q-104 67 -242 67q-106 0 -168.5 -41t-62.5 -123q0 -48 23 -86t62 -65.5t89.5 -52t106 -49t111 -52.5t106 -68t89.5 -89t62 -121t23 -160 q0 -226 -138.5 -360t-359.5 -134t-358.5 134t-137.5 360zM211 463q0 -177 107 -281t280 -104q174 0 281.5 103.5t107.5 281.5q0 44 -6.5 82.5t-16.5 69.5t-28.5 59.5t-35 48.5t-43.5 41.5t-46.5 35t-52.5 30.5t-53 26t-56 25t-53 24q-166 -40 -275.5 -154t-109.5 -288z" />
<glyph unicode="&#x3b5;" horiz-adv-x="995" d="M117 264q0 57 20 102t54 73.5t72.5 45.5t80.5 23q-40 8 -73.5 23t-65.5 41t-50 67.5t-18 95.5q0 122 99.5 192t281.5 70q85 0 180 -15t154 -44v-113q-57 32 -151 51t-173 19q-135 0 -208.5 -42.5t-73.5 -127.5t76 -127.5t206 -42.5h172v-100h-176q-146 0 -222.5 -45 t-76.5 -134q0 -99 78.5 -148.5t220.5 -49.5q84 0 179.5 23.5t158.5 60.5v-113q-65 -34 -162.5 -54t-181.5 -20q-185 0 -293 76t-108 213z" />
<glyph unicode="&#x3b6;" horiz-adv-x="841" d="M102 485q0 116 31 221t101.5 212.5t189 216.5t287.5 223h-496v96h641v-90q-238 -164 -382 -313t-203.5 -283.5t-59.5 -282.5q0 -156 75 -253t212 -132l180 -45q87 -23 127.5 -61.5t40.5 -106.5q0 -69 -37.5 -145.5t-93.5 -140.5l-62 57q103 124 103 201q0 41 -21.5 63.5 t-72.5 34.5l-218 53q-162 40 -252 163.5t-90 311.5z" />
<glyph unicode="&#x3b7;" horiz-adv-x="1157" d="M186 0v973h97l8 -94q149 118 330 118q160 0 262 -94.5t102 -263.5v-1028h-104v1022q0 129 -74 195.5t-195 66.5q-87 0 -170.5 -34t-150.5 -95v-766h-105z" />
<glyph unicode="&#x3b8;" horiz-adv-x="1171" d="M127 727q0 351 121 551.5t338 200.5q218 0 338 -200t120 -552q0 -353 -120 -552.5t-338 -199.5q-217 0 -338 200t-121 552zM238 676q0 -277 86.5 -437.5t261.5 -160.5t261.5 160.5t86.5 437.5h-696zM238 776h696q0 134 -20.5 242.5t-62.5 189t-109 124.5t-156 44 q-119 0 -198 -78t-114.5 -209.5t-35.5 -312.5z" />
<glyph unicode="&#x3b9;" horiz-adv-x="518" d="M170 188v785h104v-785q0 -54 25 -82t68 -28q71 0 127 33v-107q-63 -29 -127 -29q-92 0 -144.5 53t-52.5 160z" />
<glyph unicode="&#x3ba;" horiz-adv-x="974" d="M186 0v973h105v-418l520 418h145l-567 -453l580 -520h-140l-538 473v-473h-105z" />
<glyph unicode="&#x3bb;" horiz-adv-x="915" d="M0 0l403 997q-22 50 -31 70.5t-28.5 62.5t-30.5 60t-31 49.5t-35.5 45.5t-38.5 34t-46 29t-52 16.5t-61 9.5l14 105q66 -3 123 -28.5t99 -62.5t81 -95.5t67 -115t59 -133.5l423 -1044h-110l-346 870l-348 -870h-111z" />
<glyph unicode="&#x3bc;" horiz-adv-x="1142" d="M186 -389v1362h105v-602q0 -293 252 -293q179 0 309 166v729h104v-973h-98l-6 117q-68 -68 -144 -105t-180 -37q-73 0 -137.5 30t-99.5 83v-477h-105z" />
<glyph unicode="&#x3bd;" horiz-adv-x="940" d="M6 973h109l352 -860q271 486 317 860h103q-23 -223 -126.5 -477.5t-252.5 -495.5h-100z" />
<glyph unicode="&#x3be;" horiz-adv-x="870" d="M102 399q0 75 22.5 137.5t55 101.5t77 68.5t81 43.5t74.5 22q-46 11 -89.5 36t-82.5 64.5t-62.5 100t-23.5 131.5q0 93 34 166t94 118t137 68t167 23q166 0 278 -64v-112q-115 73 -270 73q-159 0 -246.5 -68.5t-87.5 -209.5q0 -86 49 -151.5t125.5 -98.5t165.5 -33h115 v-98h-119q-55 0 -106.5 -9t-103 -32t-89.5 -58t-62 -91t-24 -126q0 -241 274 -307l199 -47q84 -20 128 -57t44 -117q0 -70 -36 -133t-101 -139q-3 3 -29.5 27t-34.5 30q101 112 101 199q0 41 -22 61.5t-75 32.5l-194 47q-363 87 -363 401z" />
<glyph unicode="&#x3bf;" horiz-adv-x="1200" d="M111 485q0 228 138 370t357 142t357.5 -142t138.5 -370t-138.5 -369t-357.5 -141t-357 141t-138 369zM217 485q0 -191 107 -299t282 -108t281 107.5t106 299.5t-106 301t-281 109t-282 -109t-107 -301z" />
<glyph unicode="&#x3c0;" horiz-adv-x="1155" d="M43 874v99h1042v-99h-206v-686q0 -54 24.5 -82t67.5 -28q72 0 125 33v-107q-60 -29 -125 -29q-92 0 -144.5 53t-52.5 160v686h-424v-874h-104v874h-203z" />
<glyph unicode="&#x3c1;" horiz-adv-x="1105" d="M135 -389v872q0 248 114.5 381t307.5 133q195 0 316.5 -133.5t121.5 -374.5q0 -127 -35 -226.5t-96.5 -161.5t-141 -94t-171.5 -32q-170 0 -311 88v-452h-105zM240 172q71 -50 143.5 -72t167.5 -22q68 0 127.5 23.5t107.5 70.5t75.5 128t27.5 187q0 190 -93.5 299 t-238.5 109q-144 0 -230.5 -109t-86.5 -305v-309z" />
<glyph unicode="&#x3c2;" horiz-adv-x="954" d="M111 485q0 231 135.5 371.5t361.5 140.5q148 0 256 -51v-112q-116 61 -252 61q-178 0 -287.5 -102.5t-109.5 -307.5q0 -94 26 -164t57.5 -109.5t99.5 -71.5t111 -44t133 -33q11 -3 17 -4q74 -17 122 -57t48 -121q0 -48 -24 -104.5t-48.5 -92t-62.5 -83.5l-61 57 q42 47 69 104.5t27 110.5q0 36 -19.5 58t-68.5 32q-87 18 -153.5 37.5t-129 49t-106 68.5t-76.5 91t-49 121t-16 155z" />
<glyph unicode="&#x3c3;" horiz-adv-x="1216" d="M111 473q0 227 136.5 363.5t356.5 136.5h576v-99h-308q106 -49 166 -157.5t60 -245.5q0 -227 -137 -361.5t-357 -134.5t-356.5 135.5t-136.5 362.5zM215 473q0 -181 107.5 -288t281.5 -107t280.5 107t106.5 288q0 182 -107 291.5t-280 109.5t-281 -109.5t-108 -291.5z " />
<glyph unicode="&#x3c4;" horiz-adv-x="864" d="M20 874v99h799v-99h-346v-686q0 -54 24.5 -82t67.5 -28q72 0 125 33v-107q-60 -29 -125 -29q-92 0 -144 53t-52 160v686h-349z" />
<glyph unicode="&#x3c5;" horiz-adv-x="1089" d="M145 416v557h105v-533q0 -162 79.5 -262t225.5 -100q102 0 173 55t103.5 142.5t32.5 199.5q0 143 -51.5 277t-146.5 221h120q86 -76 134.5 -211t48.5 -281q0 -103 -25.5 -193t-75 -160.5t-130 -111.5t-181.5 -41q-193 0 -302.5 124t-109.5 317z" />
<glyph unicode="&#x3c6;" horiz-adv-x="1441" d="M111 510q0 154 58 275.5t153 187.5h137q-111 -73 -176.5 -190t-65.5 -269q0 -191 122.5 -309t326.5 -127v457q0 235 86.5 348.5t238.5 113.5q146 0 243 -119t97 -346q0 -247 -153.5 -396.5t-407.5 -158.5v-366h-104v366q-251 11 -403 151t-152 382zM770 78q209 4 332 131 t123 328q0 173 -66 265.5t-168 92.5q-221 0 -221 -363v-454z" />
<glyph unicode="&#x3c7;" horiz-adv-x="856" d="M-51 -389l420 725l-365 637h115l307 -543l309 543h111l-365 -633l426 -729h-121l-362 633l-361 -633h-114z" />
<glyph unicode="&#x3c8;" horiz-adv-x="1425" d="M123 545q0 228 110 428h111q-113 -212 -113 -428q0 -96 26.5 -177.5t78.5 -145t135.5 -101.5t192.5 -43v1204h98v-1204q213 10 322.5 139t109.5 328q0 216 -113 428h111q111 -202 111 -428q0 -244 -142 -399.5t-399 -170.5v-364h-98v364q-257 15 -399 170.5t-142 399.5z " />
<glyph unicode="&#x3c9;" horiz-adv-x="1660" d="M111 449q0 305 178 524h123q-94 -125 -144.5 -250t-50.5 -272q0 -174 72.5 -273.5t199.5 -99.5q140 0 214.5 110t74.5 273v325h105v-325q0 -163 74 -273t214 -110q126 0 199.5 100t73.5 273q0 148 -50.5 273t-146.5 249h125q178 -219 178 -524q0 -216 -98 -345t-274 -129 q-135 0 -221.5 75.5t-127.5 195.5q-39 -119 -125 -195t-221 -76q-176 0 -274 129t-98 345z" />
<glyph unicode="&#x3ca;" horiz-adv-x="518" d="M-2 1223v170h104v-170h-104zM170 188v785h104v-785q0 -54 25 -82t68 -28q71 0 127 33v-107q-63 -29 -127 -29q-92 0 -144.5 53t-52.5 160zM344 1223v170h105v-170h-105z" />
<glyph unicode="&#x3cb;" horiz-adv-x="1089" d="M145 416v557h105v-533q0 -162 79.5 -262t225.5 -100q102 0 173 55t103.5 142.5t32.5 199.5q0 143 -51.5 277t-146.5 221h120q86 -76 134.5 -211t48.5 -281q0 -103 -25.5 -193t-75 -160.5t-130 -111.5t-181.5 -41q-193 0 -302.5 124t-109.5 317zM315 1223v170h105v-170 h-105zM662 1223v170h104v-170h-104z" />
<glyph unicode="&#x3cc;" horiz-adv-x="1212" d="M111 485q0 228 138 370t357 142t357.5 -142t138.5 -370t-138.5 -369t-357.5 -141t-357 141t-138 369zM217 485q0 -191 107 -299t282 -108t281 107.5t106 299.5t-106 301t-281 109t-282 -109t-107 -301zM551 1145l172 309h127l-205 -309h-94z" />
<glyph unicode="&#x3cd;" horiz-adv-x="1089" d="M145 416v557h105v-533q0 -162 79.5 -262t225.5 -100q102 0 173 55t103.5 142.5t32.5 199.5q0 143 -51.5 277t-146.5 221h120q86 -76 134.5 -211t48.5 -281q0 -103 -25.5 -193t-75 -160.5t-130 -111.5t-181.5 -41q-193 0 -302.5 124t-109.5 317zM438 1145l172 309h127 l-205 -309h-94z" />
<glyph unicode="&#x3ce;" horiz-adv-x="1660" d="M111 449q0 305 178 524h123q-94 -125 -144.5 -250t-50.5 -272q0 -174 72.5 -273.5t199.5 -99.5q140 0 214.5 110t74.5 273v325h105v-325q0 -163 74 -273t214 -110q126 0 199.5 100t73.5 273q0 148 -50.5 273t-146.5 249h125q178 -219 178 -524q0 -216 -98 -345t-274 -129 q-135 0 -221.5 75.5t-127.5 195.5q-39 -119 -125 -195t-221 -76q-176 0 -274 129t-98 345zM782 1145l172 309h127l-204 -309h-95z" />
<glyph unicode="&#x3d0;" horiz-adv-x="1140" d="M135 713q0 124 16.5 229.5t44.5 182.5t67.5 138.5t83 101t93 66t96.5 37.5t95 11q75 0 139 -22t114 -65.5t78.5 -116t28.5 -167.5q0 -83 -24.5 -150t-66 -110t-85 -69.5t-92.5 -41.5q39 -7 78.5 -21.5t83 -43.5t76 -68.5t54 -101t21.5 -135.5q0 -95 -33.5 -171.5 t-89.5 -123.5t-125.5 -72t-144.5 -25q-44 0 -86.5 7t-94.5 27.5t-96.5 53.5t-88 90t-74 132t-49.5 185t-19 243zM246 754q54 -4 82 -4q85 0 160.5 10t150 35.5t127.5 64.5t86 102t33 144q0 133 -69.5 204.5t-190.5 71.5q-50 0 -98.5 -16t-100.5 -60.5t-90.5 -112t-63.5 -181 t-26 -258.5zM248 651q2 -87 13.5 -161t28.5 -128t41.5 -98t49.5 -73t55.5 -50.5t56.5 -33t56 -18.5t51 -9t43 -2q121 0 202 73t81 209q0 141 -89.5 218t-232.5 96q-133 -25 -285 -25q-18 0 -42 1t-29 1z" />
<glyph unicode="&#x3d1;" horiz-adv-x="1140" d="M133 1030q0 191 115 320t293 129q55 0 106 -14.5t103.5 -46.5t95 -90.5t76.5 -139.5t52.5 -201t18.5 -268q0 -126 -15.5 -232t-41.5 -181t-63 -134t-77 -95.5t-86 -60t-88 -32.5t-85 -9q-178 0 -286 118.5t-108 312.5q0 41 7 102h100q-8 -44 -8 -96q0 -156 77 -245 t220 -89q30 0 58 4.5t64 20t66.5 40.5t61.5 71t52 106.5t34.5 152t13.5 203.5q-153 -68 -314 -68q-70 0 -132.5 13.5t-120 45t-99 79t-66 120.5t-24.5 164zM233 1034q0 -72 19.5 -128t51.5 -92t78 -60t95.5 -33.5t106.5 -9.5q163 0 307 67q-14 596 -352 596 q-138 0 -222 -95.5t-84 -244.5z" />
<glyph unicode="&#x400;" horiz-adv-x="1159" d="M217 317v1067h776v-100h-661v-512h610v-100h-610v-355q0 -110 53 -163.5t166 -53.5h477v-100h-489q-168 0 -245 80.5t-77 236.5zM377 1833h127l172 -309h-94z" />
<glyph unicode="&#x401;" horiz-adv-x="1159" d="M217 317v1067h776v-100h-661v-512h610v-100h-610v-355q0 -110 53 -163.5t166 -53.5h477v-100h-489q-168 0 -245 80.5t-77 236.5zM358 1626v170h105v-170h-105zM705 1626v170h104v-170h-104z" />
<glyph unicode="&#x402;" horiz-adv-x="1501" d="M43 1284v100h1128v-100h-526v-457q130 107 305 107q189 0 306.5 -139.5t117.5 -384.5q0 -148 -34.5 -265t-87 -187.5t-121.5 -116.5t-132 -63.5t-125 -17.5v109q48 3 95 17t101.5 51.5t95 94t67.5 152t27 217.5q0 201 -87.5 310.5t-238.5 109.5q-72 0 -150 -32t-139 -84 v-705h-115v1284h-487z" />
<glyph unicode="&#x403;" horiz-adv-x="1036" d="M233 0v1384h758v-100h-643v-1284h-115zM537 1524l172 309h127l-205 -309h-94z" />
<glyph unicode="&#x404;" horiz-adv-x="1312" d="M131 692q0 326 190 521.5t508 195.5q197 0 336 -68v-108q-148 74 -336 74q-245 0 -398.5 -144t-176.5 -393h750v-104h-754q7 -270 166 -429t418 -159q195 0 348 86v-111q-153 -78 -346 -78q-323 0 -514 195.5t-191 521.5z" />
<glyph unicode="&#x405;" horiz-adv-x="1144" d="M143 80v108q182 -110 396 -110q57 0 107.5 9t96 30.5t78 53.5t51.5 81t19 110q0 63 -25.5 110t-68.5 76.5t-99 52t-118 41t-124 38t-118 48.5t-99 67t-68.5 99t-25.5 140q0 93 38 166t103 118t144.5 68t167.5 23q217 0 369 -84v-108q-169 90 -371 90q-64 0 -121 -15 t-106 -46t-78 -84.5t-29 -123.5q0 -60 25.5 -106t68.5 -74.5t99 -51t118 -40.5t124 -38t118 -49.5t99 -68.5t68.5 -100.5t25.5 -140.5q0 -102 -39.5 -180t-107 -123.5t-150 -68t-176.5 -22.5q-105 0 -211.5 28.5t-180.5 76.5z" />
<glyph unicode="&#x406;" horiz-adv-x="583" d="M236 0v1384h114v-1384h-114z" />
<glyph unicode="&#x407;" horiz-adv-x="583" d="M70 1634v170h104v-170h-104zM236 0v1384h114v-1384h-114zM416 1634v170h104v-170h-104z" />
<glyph unicode="&#x408;" horiz-adv-x="751" d="M33 16v109q40 -20 96 -33.5t100 -13.5q108 0 155.5 62.5t47.5 195.5v1048h115v-1052q0 -176 -83 -266.5t-233 -90.5q-115 0 -198 41z" />
<glyph unicode="&#x409;" horiz-adv-x="2027" d="M39 -25v105q39 11 70 29.5t53.5 49t39 63t27 83t17 95t9.5 113.5t4 125t1 142v604h870v-548h273q239 0 371.5 -108.5t132.5 -309.5q0 -197 -131 -307.5t-373 -110.5h-387v1284h-647v-504q0 -95 -1.5 -162t-6.5 -144t-15.5 -130t-26.5 -109.5t-40.5 -94.5t-58 -73t-79 -57 t-102.5 -35zM1130 100h273q182 0 283.5 81.5t101.5 236.5t-101 236t-284 81h-273v-635z" />
<glyph unicode="&#x40a;" horiz-adv-x="2060" d="M233 0v1384h115v-548h701v548h114v-548h273q239 0 371 -108.5t132 -309.5q0 -197 -130.5 -307.5t-372.5 -110.5h-387v735h-701v-735h-115zM1163 100h273q184 0 284.5 81.5t100.5 236.5t-100.5 236t-284.5 81h-273v-635z" />
<glyph unicode="&#x40b;" horiz-adv-x="1525" d="M43 1284v100h1131v-100h-529v-475q65 58 151.5 90.5t176.5 32.5q76 0 141 -21.5t118 -66.5t83.5 -123t30.5 -182v-539h-113v547q0 128 -75 201t-197 73q-77 0 -165.5 -38t-150.5 -97v-686h-115v1284h-487z" />
<glyph unicode="&#x40c;" horiz-adv-x="1204" d="M236 0v1384h114v-739l694 739h142l-545 -579l553 -805h-135l-500 721l-209 -219v-502h-114zM604 1524l172 309h127l-205 -309h-94z" />
<glyph unicode="&#x40d;" horiz-adv-x="1589" d="M236 0v1384h112v-1202l891 1202h115v-1384h-113v1206l-891 -1206h-114zM569 1833h127l172 -309h-94z" />
<glyph unicode="&#x40e;" horiz-adv-x="1128" d="M45 1384h125l438 -839l430 839h115l-483 -962q-29 -58 -45.5 -90t-42 -79t-42 -72.5t-41 -60t-44 -52.5t-45.5 -39t-51.5 -30.5t-56 -16.5t-64.5 -7q-70 0 -138 23v104q68 -24 142 -24q33 0 60.5 8t54 31t45.5 45t46 70t45.5 84t53.5 108zM338 1819h88q23 -181 188 -181 q84 0 131 47.5t58 133.5h88q-9 -127 -81.5 -205t-195.5 -78q-122 0 -194.5 78t-81.5 205z" />
<glyph unicode="&#x40f;" horiz-adv-x="1484" d="M233 0v1384h115v-1284h787v1284h114v-1384h-450l-6 -285h-103l-6 285h-451z" />
<glyph unicode="&#x410;" horiz-adv-x="1226" d="M0 0l559 1384h119l549 -1384h-119l-158 393h-678l-153 -393h-119zM315 496h596l-299 753z" />
<glyph unicode="&#x411;" horiz-adv-x="1265" d="M236 0v1384h757v-100h-643v-448h273q239 0 371 -108.5t132 -309.5q0 -197 -130.5 -307.5t-372.5 -110.5h-387zM350 100h273q184 0 284.5 81.5t100.5 236.5t-100.5 236t-284.5 81h-273v-635z" />
<glyph unicode="&#x412;" horiz-adv-x="1226" d="M236 0v1384h348q249 0 373 -91t124 -261q0 -71 -23 -129t-62.5 -96t-84 -62.5t-94.5 -37.5q130 -26 214.5 -107.5t84.5 -220.5q0 -181 -143 -280t-404 -99h-333zM350 100h223q194 0 308 70t114 205q0 128 -109 203t-306 75h-230v-553zM350 754h223q180 0 284 72.5 t104 205.5q0 130 -95 191t-280 61h-236v-530z" />
<glyph unicode="&#x413;" horiz-adv-x="1001" d="M233 0v1384h758v-100h-643v-1284h-115z" />
<glyph unicode="&#x414;" horiz-adv-x="1280" d="M18 100h56q54 81 92.5 178t57.5 176.5t29 186t11.5 166t1.5 156.5v421h787v-1284h51v-385h-98l-7 285h-878l-10 -285h-93v385zM197 100h741v1184h-561v-321q0 -119 -5 -208t-21 -211t-55 -234.5t-99 -209.5z" />
<glyph unicode="&#x415;" horiz-adv-x="1159" d="M217 317v1067h776v-100h-661v-512h610v-100h-610v-355q0 -110 53 -163.5t166 -53.5h477v-100h-489q-168 0 -245 80.5t-77 236.5z" />
<glyph unicode="&#x416;" horiz-adv-x="1826" d="M12 0l553 805l-545 579h142l694 -739v739h115v-739l694 739h141l-544 -579l555 -805h-138l-497 725l-211 -223v-502h-115v502l-211 223l-498 -725h-135z" />
<glyph unicode="&#x417;" horiz-adv-x="1077" d="M104 57v113q171 -92 355 -92q167 0 269.5 77t102.5 222q0 130 -108 200t-303 70h-125v109h125q190 0 291.5 74t101.5 204q0 134 -93 203.5t-239 69.5q-106 0 -189.5 -29.5t-162.5 -89.5v117q147 104 360 104q194 0 318.5 -95t124.5 -272q0 -133 -79.5 -222t-188.5 -115 q126 -25 205 -109.5t79 -224.5q0 -189 -132 -292.5t-353 -103.5q-92 0 -189 22t-170 60z" />
<glyph unicode="&#x418;" horiz-adv-x="1589" d="M236 0v1384h112v-1202l891 1202h115v-1384h-113v1206l-891 -1206h-114z" />
<glyph unicode="&#x419;" horiz-adv-x="1589" d="M236 0v1384h112v-1202l891 1202h115v-1384h-113v1206l-891 -1206h-114zM518 1819h88q11 -86 58 -133.5t131 -47.5q165 0 188 181h88q-9 -127 -81.5 -205t-194.5 -78q-123 0 -195.5 78t-81.5 205z" />
<glyph unicode="&#x41a;" horiz-adv-x="1204" d="M236 0v1384h114v-739l694 739h142l-545 -579l553 -805h-135l-500 721l-209 -219v-502h-114z" />
<glyph unicode="&#x41b;" horiz-adv-x="1409" d="M39 -25v105q39 11 70 29.5t53.5 49t39 63t27 83t17 95t9.5 113.5t4 125t1 142v604h916v-1384h-117v1284h-692l2 -504q0 -95 -1.5 -162t-6.5 -144t-15.5 -130t-26.5 -109.5t-40.5 -94.5t-58 -73t-79 -57t-102.5 -35z" />
<glyph unicode="&#x41c;" horiz-adv-x="1916" d="M236 0v1384h131l591 -997l592 997h133v-1384h-114v1206l-553 -936h-113l-553 936v-1206h-114z" />
<glyph unicode="&#x41d;" horiz-adv-x="1597" d="M236 0v1384h114v-612h899v612h115v-1384h-115v672h-899v-672h-114z" />
<glyph unicode="&#x41e;" horiz-adv-x="1675" d="M131 692q0 325 193.5 521t513.5 196q319 0 512.5 -196t193.5 -521t-193.5 -521t-512.5 -196q-320 0 -513.5 196t-193.5 521zM250 692q0 -283 159 -448.5t429 -165.5t427.5 165.5t157.5 448.5t-157.5 449t-427.5 166t-429 -166t-159 -449z" />
<glyph unicode="&#x41f;" horiz-adv-x="1536" d="M236 0v1384h1064v-1384h-114v1278h-836v-1278h-114z" />
<glyph unicode="&#x420;" horiz-adv-x="1239" d="M236 0v1384h387q242 0 372.5 -110t130.5 -307q0 -201 -132 -309.5t-371 -108.5h-273v-549h-114zM350 649h273q184 0 284.5 81.5t100.5 236.5t-100.5 236t-284.5 81h-273v-635z" />
<glyph unicode="&#x421;" horiz-adv-x="1312" d="M131 692q0 326 190 521.5t508 195.5q197 0 336 -68v-108q-148 74 -336 74q-265 0 -422 -166.5t-157 -448.5t159.5 -448t424.5 -166q195 0 348 86v-111q-153 -78 -346 -78q-323 0 -514 195.5t-191 521.5z" />
<glyph unicode="&#x422;" horiz-adv-x="1177" d="M43 1284v100h1090v-100h-488v-1284h-115v1284h-487z" />
<glyph unicode="&#x423;" horiz-adv-x="1128" d="M45 1384h125l438 -839l430 839h115l-483 -962q-29 -58 -45.5 -90t-42 -79t-42 -72.5t-41 -60t-44 -52.5t-45.5 -39t-51.5 -30.5t-56 -16.5t-64.5 -7q-70 0 -138 23v104q68 -24 142 -24q33 0 60.5 8t54 31t45.5 45t46 70t45.5 84t53.5 108z" />
<glyph unicode="&#x424;" horiz-adv-x="1656" d="M121 692q0 266 178 431t473 177v154h115v-154q293 -12 471 -177t178 -431q0 -267 -178 -432.5t-471 -177.5v-152h-115v152q-295 12 -473 177t-178 433zM240 692q0 -220 144 -357t388 -147v1006q-244 -10 -388 -147t-144 -355zM887 188q244 10 387 147.5t143 356.5 q0 218 -143.5 355t-386.5 147v-1006z" />
<glyph unicode="&#x425;" horiz-adv-x="1222" d="M27 0l518 696l-512 688h139l440 -598l443 598h135l-512 -686l518 -698h-139l-447 608l-446 -608h-137z" />
<glyph unicode="&#x426;" horiz-adv-x="1484" d="M233 0v1384h115v-1284h787v1284h114v-1284h80v-387h-98l-6 287h-992z" />
<glyph unicode="&#x427;" horiz-adv-x="1339" d="M154 987v397h114v-397q0 -194 103 -293.5t268 -99.5q225 0 385 176v614h115v-1384h-115v641q-73 -70 -178.5 -115t-224.5 -45q-208 0 -337.5 130.5t-129.5 375.5z" />
<glyph unicode="&#x428;" horiz-adv-x="2000" d="M236 0v1384h114v-1284h594v1284h115v-1284h594v1284h114v-1384h-1531z" />
<glyph unicode="&#x429;" horiz-adv-x="2000" d="M236 0v1384h114v-1284h594v1284h115v-1284h594v1284h114v-1284h76v-385h-96l-8 285h-1503z" />
<glyph unicode="&#x42a;" horiz-adv-x="1388" d="M41 1284v100h451v-548h272q239 0 371.5 -108.5t132.5 -309.5q0 -197 -131 -307.5t-373 -110.5h-387v1284h-336zM492 100h272q182 0 283.5 81.5t101.5 236.5t-101 236t-284 81h-272v-635z" />
<glyph unicode="&#x42b;" horiz-adv-x="1832" d="M236 0v1384h114v-548h273q239 0 371 -108.5t132 -309.5q0 -197 -130.5 -307.5t-372.5 -110.5h-387zM350 100h273q184 0 284.5 81.5t100.5 236.5t-100.5 236t-284.5 81h-273v-635zM1483 0v1384h114v-1384h-114z" />
<glyph unicode="&#x42c;" horiz-adv-x="1247" d="M236 0v1384h114v-548h273q239 0 371 -108.5t132 -309.5q0 -197 -130.5 -307.5t-372.5 -110.5h-387zM350 100h273q184 0 284.5 81.5t100.5 236.5t-100.5 236t-284.5 81h-273v-635z" />
<glyph unicode="&#x42d;" horiz-adv-x="1312" d="M131 53v111q153 -86 348 -86q259 0 418 159t166 429h-754v104h750q-23 248 -177 392.5t-399 144.5q-188 0 -336 -74v108q139 68 336 68q318 0 508.5 -195.5t190.5 -521.5t-191 -521.5t-514 -195.5q-193 0 -346 78z" />
<glyph unicode="&#x42e;" horiz-adv-x="2187" d="M236 0v1384h114v-612h309q25 291 215.5 464t489.5 173q319 0 513 -196t194 -521t-194 -521t-513 -196q-314 0 -508 190t-201 507h-305v-672h-114zM776 692q0 -283 159 -448.5t429 -165.5q269 0 427.5 166t158.5 448q0 283 -158.5 449t-427.5 166q-270 0 -429 -166 t-159 -449z" />
<glyph unicode="&#x42f;" horiz-adv-x="1259" d="M78 0l434 557q-183 31 -281 134.5t-98 275.5q0 197 131 307t373 110h387v-1384h-115v549h-270l-426 -549h-135zM252 967q0 -155 100.5 -236.5t284.5 -81.5h272v635h-272q-184 0 -284.5 -81t-100.5 -236z" />
<glyph unicode="&#x430;" horiz-adv-x="1146" d="M111 487q0 128 41.5 228t113 160.5t161 91t191.5 30.5q178 0 347 -79v-918h-101l-4 117q-142 -142 -328 -142q-88 0 -163.5 33t-133.5 95.5t-91 161.5t-33 222zM217 489q0 -206 92 -308.5t240 -102.5q178 0 311 166v602q-123 49 -244 49q-64 0 -121 -14t-108.5 -45 t-88.5 -77t-59 -115.5t-22 -154.5z" />
<glyph unicode="&#x431;" horiz-adv-x="1212" d="M111 565q0 119 13.5 218.5t33 175t58 138.5t71.5 106t92 80.5t100.5 59t117 44.5t120.5 33.5t130 29.5q107 23 161 37v-109q-56 -17 -131.5 -34t-132 -27.5t-123.5 -30t-116.5 -42t-100.5 -63t-86.5 -94t-63 -134.5t-39.5 -185q49 105 159 167t247 62q215 0 348 -141.5 t133 -370.5q0 -228 -138.5 -369t-357.5 -141q-233 0 -364 156t-131 434zM217 485q0 -191 107 -299t282 -108t281 107.5t106 299.5t-106 301t-281 109t-282 -109t-107 -301z" />
<glyph unicode="&#x432;" horiz-adv-x="1110" d="M186 0v973h416q371 0 371 -254q0 -176 -170 -223q84 -13 140 -71t56 -161q0 -131 -103 -197.5t-294 -66.5h-416zM291 100h313q140 0 214.5 44t74.5 128q0 174 -289 174h-313v-346zM291 545h309q137 0 200.5 40.5t63.5 125.5q0 84 -63.5 123.5t-200.5 39.5h-309v-329z" />
<glyph unicode="&#x433;" horiz-adv-x="802" d="M186 0v973h580v-99h-475v-874h-105z" />
<glyph unicode="&#x434;" horiz-adv-x="1028" d="M16 100h43q53 61 84.5 123.5t46 147.5t18 159t3.5 209v234h649v-873h55v-387h-84l-8 287h-714l-11 -287h-82v387zM174 100h582v774h-445v-133q0 -247 -27 -399.5t-110 -241.5z" />
<glyph unicode="&#x435;" horiz-adv-x="1099" d="M111 485q0 231 122.5 371.5t331.5 140.5q87 0 160 -26.5t123 -71.5t84.5 -105t50.5 -126.5t16 -137.5v-65h-782q4 -102 38 -178.5t89.5 -121t123.5 -66t148 -21.5q184 0 357 100v-115q-168 -88 -359 -88q-81 0 -153.5 17.5t-137 57t-111.5 98t-74 145t-27 192.5zM221 565 h670q-2 134 -90 232t-236 98q-151 0 -237 -85t-107 -245z" />
<glyph unicode="&#x436;" horiz-adv-x="1472" d="M6 0l416 559l-399 414h133l528 -545v545h104v-545l529 545h133l-399 -414l415 -559h-127l-360 485l-191 -192v-293h-104v293l-190 192l-361 -485h-127z" />
<glyph unicode="&#x437;" horiz-adv-x="993" d="M127 49v113q63 -37 158.5 -60.5t179.5 -23.5q142 0 220.5 49.5t78.5 148.5q0 89 -76.5 134t-222.5 45h-176v100h172q130 0 206 42.5t76 127.5t-73.5 127.5t-208.5 42.5q-79 0 -173 -19t-151 -51v113q59 29 154 44t180 15q182 0 281.5 -70t99.5 -192q0 -54 -18 -95.5 t-50 -67.5t-65.5 -41t-73.5 -23q42 -6 80.5 -23t72.5 -45.5t54 -73.5t20 -102q0 -137 -108 -213t-293 -76q-84 0 -181.5 20t-162.5 54z" />
<glyph unicode="&#x438;" horiz-adv-x="1177" d="M186 0v973h105v-817l596 817h104v-973h-104v813l-596 -813h-105z" />
<glyph unicode="&#x439;" horiz-adv-x="1177" d="M186 0v973h105v-817l596 817h104v-973h-104v813l-596 -813h-105zM311 1440h88q23 -180 189 -180q165 0 188 180h88q-9 -127 -81.5 -205t-194.5 -78q-123 0 -195.5 78t-81.5 205z" />
<glyph unicode="&#x43a;" horiz-adv-x="974" d="M184 0v973h105v-545l528 545h133l-399 -414l416 -559h-125l-367 483l-186 -190v-293h-105z" />
<glyph unicode="&#x43b;" horiz-adv-x="1073" d="M0 -27v101q37 12 66 28t51 40t37.5 48t26 63t16.5 74t9 91.5t4 106t1 126.5v322h676v-973h-105v874h-471v-223q0 -91 -2.5 -156.5t-10 -135t-21.5 -118.5t-37 -96t-55.5 -78.5t-78.5 -56t-106 -37.5z" />
<glyph unicode="&#x43c;" horiz-adv-x="1458" d="M186 0v973h115l428 -699l428 699h115v-973h-105v801l-389 -629h-98l-389 629v-801h-105z" />
<glyph unicode="&#x43d;" horiz-adv-x="1175" d="M186 0v973h105v-400h594v400h104v-973h-104v471h-594v-471h-105z" />
<glyph unicode="&#x43e;" horiz-adv-x="1212" d="M111 485q0 228 138 370t357 142t357.5 -142t138.5 -370t-138.5 -369t-357.5 -141t-357 141t-138 369zM217 485q0 -191 107 -299t282 -108t281 107.5t106 299.5t-106 301t-281 109t-282 -109t-107 -301z" />
<glyph unicode="&#x43f;" horiz-adv-x="1171" d="M186 0v973h799v-973h-104v874h-590v-874h-105z" />
<glyph unicode="&#x440;" horiz-adv-x="1150" d="M186 -389v1362h97l8 -94q43 32 78 53t103.5 43t141.5 22q88 0 164.5 -32.5t135 -94t92.5 -159t34 -219.5q0 -125 -36.5 -225t-100 -163t-146.5 -96t-179 -33q-162 0 -287 80v-444h-105zM291 162q125 -84 282 -84q74 0 137 24t114 72.5t80.5 130t29.5 187.5 q0 102 -26.5 181t-72.5 126.5t-103.5 71.5t-123.5 24q-88 0 -172.5 -36.5t-144.5 -92.5v-604z" />
<glyph unicode="&#x441;" horiz-adv-x="991" d="M111 487q0 231 136 370.5t363 139.5q137 0 248 -51v-112q-119 61 -244 61q-86 0 -157 -24t-125.5 -72t-84.5 -127.5t-30 -184.5q0 -204 106.5 -306.5t274.5 -102.5q146 0 274 86v-117q-122 -72 -274 -72q-218 0 -352.5 141t-134.5 371z" />
<glyph unicode="&#x442;" horiz-adv-x="841" d="M20 874v99h801v-99h-348v-874h-104v874h-349z" />
<glyph unicode="&#x443;" horiz-adv-x="929" d="M6 973h111l344 -846l350 846h111l-408 -977q-77 -185 -165.5 -281t-244.5 -131v107q111 28 181 106.5t123 212.5z" />
<glyph unicode="&#x444;" horiz-adv-x="1421" d="M111 485q0 236 148.5 367.5t399.5 142.5v389h101v-389q252 -11 401.5 -143t149.5 -367q0 -236 -150 -368.5t-401 -141.5v-364h-101v364q-251 9 -399.5 141.5t-148.5 368.5zM217 485q0 -181 121.5 -290.5t320.5 -120.5v821q-199 -11 -320.5 -120t-121.5 -290zM760 74 q200 11 321 120t121 291q0 181 -121 290t-321 120v-821z" />
<glyph unicode="&#x445;" horiz-adv-x="894" d="M16 0l369 487l-356 486h125l295 -400l307 400h114l-362 -479l369 -494h-129l-304 410l-309 -410h-119z" />
<glyph unicode="&#x446;" horiz-adv-x="1114" d="M184 0v973h105v-873h518v873h104v-873h66v-387h-84l-8 287h-701z" />
<glyph unicode="&#x447;" horiz-adv-x="1073" d="M117 678v295h104v-287q0 -153 65.5 -223t190.5 -70q175 0 305 166v414h105v-973h-105v432q-141 -141 -317 -141q-160 0 -254 99t-94 288z" />
<glyph unicode="&#x448;" horiz-adv-x="1517" d="M186 0v973h105v-873h416v873h104v-873h416v873h104v-973h-1145z" />
<glyph unicode="&#x449;" horiz-adv-x="1531" d="M186 0v973h105v-873h416v873h104v-873h416v873h104v-873h68v-387h-84l-10 287h-1119z" />
<glyph unicode="&#x44a;" horiz-adv-x="1079" d="M0 874v99h356v-383h279q395 0 395 -295t-395 -295h-383v874h-252zM356 100h281q287 0 287 195q0 194 -287 194h-281v-389z" />
<glyph unicode="&#x44b;" horiz-adv-x="1464" d="M186 0v973h105v-383h278q396 0 396 -295t-396 -295h-383zM291 100h280q287 0 287 195q0 194 -287 194h-280v-389zM1174 0v973h104v-973h-104z" />
<glyph unicode="&#x44c;" horiz-adv-x="1013" d="M186 0v973h105v-383h278q396 0 396 -295t-396 -295h-383zM291 100h280q287 0 287 195q0 194 -287 194h-280v-389z" />
<glyph unicode="&#x44d;" horiz-adv-x="989" d="M109 47v117q125 -86 282 -86q76 0 141.5 22t117.5 65.5t84 116t38 167.5h-516v98h514q-17 175 -123.5 261.5t-271.5 86.5q-136 0 -252 -61v112q108 51 256 51q227 0 363.5 -139.5t136.5 -370.5q0 -230 -134.5 -371t-353.5 -141q-164 0 -282 72z" />
<glyph unicode="&#x44e;" horiz-adv-x="1665" d="M184 0v973h105v-400h284q26 192 160 308t330 116q219 0 358.5 -142t139.5 -370t-139.5 -369t-358.5 -141q-216 0 -354 137t-142 359h-278v-471h-105zM676 485q0 -192 106 -299.5t281 -107.5q176 0 282.5 107.5t106.5 299.5t-106.5 301t-282.5 109q-175 0 -281 -109 t-106 -301z" />
<glyph unicode="&#x44f;" horiz-adv-x="1112" d="M115 0l319 389q-313 28 -313 289q0 295 395 295h410v-973h-105v383h-258l-319 -383h-129zM227 678q0 -96 73.5 -145.5t215.5 -49.5h305v389h-305q-142 0 -215.5 -49t-73.5 -145z" />
<glyph unicode="&#x450;" horiz-adv-x="1099" d="M111 485q0 231 122.5 371.5t331.5 140.5q87 0 160 -26.5t123 -71.5t84.5 -105t50.5 -126.5t16 -137.5v-65h-782q4 -102 38 -178.5t89.5 -121t123.5 -66t148 -21.5q184 0 357 100v-115q-168 -88 -359 -88q-81 0 -153.5 17.5t-137 57t-111.5 98t-74 145t-27 192.5zM221 565 h670q-2 134 -90 232t-236 98q-151 0 -237 -85t-107 -245zM313 1454h127l172 -309h-94z" />
<glyph unicode="&#x451;" horiz-adv-x="1099" d="M111 485q0 231 122.5 371.5t331.5 140.5q87 0 160 -26.5t123 -71.5t84.5 -105t50.5 -126.5t16 -137.5v-65h-782q4 -102 38 -178.5t89.5 -121t123.5 -66t148 -21.5q184 0 357 100v-115q-168 -88 -359 -88q-81 0 -153.5 17.5t-137 57t-111.5 98t-74 145t-27 192.5zM221 565 h670q-2 134 -90 232t-236 98q-151 0 -237 -85t-107 -245zM326 1223v170h104v-170h-104zM672 1223v170h104v-170h-104z" />
<glyph unicode="&#x452;" horiz-adv-x="1085" d="M27 1198v92h155v164h105v-164h418v-92h-418v-319q44 35 80 56.5t102.5 41.5t142.5 20q116 0 197.5 -69.5t120.5 -186.5t39 -270q0 -115 -14.5 -211t-39 -166.5t-60.5 -127t-76 -93.5t-88.5 -64t-94.5 -41t-98 -22v102q64 12 116.5 36.5t100 71t79.5 112.5t51 164t19 221 q0 131 -27 228t-88 155.5t-151 58.5q-165 0 -311 -129v-766h-105v1198h-155z" />
<glyph unicode="&#x453;" horiz-adv-x="802" d="M186 0v973h580v-99h-475v-874h-105zM416 1145l172 309h127l-205 -309h-94z" />
<glyph unicode="&#x454;" horiz-adv-x="1003" d="M111 487q0 231 136 370.5t363 139.5q148 0 256 -51v-112q-116 61 -252 61q-165 0 -271.5 -86.5t-123.5 -261.5h514v-98h-516q6 -95 38 -167.5t84 -116t117.5 -65.5t141.5 -22q158 0 283 86v-117q-118 -72 -283 -72q-218 0 -352.5 141t-134.5 371z" />
<glyph unicode="&#x455;" horiz-adv-x="935" d="M117 715q0 135 107 208.5t274 73.5q82 0 174 -20t141 -49v-115q-57 37 -144 59.5t-173 22.5q-123 0 -199 -42.5t-76 -131.5q0 -53 34 -87.5t88 -52.5t119.5 -31.5t131.5 -32t120 -46t88 -81t34 -130.5q0 -139 -103 -212t-268 -73q-195 0 -346 91v112q162 -100 346 -100 q126 0 196 43.5t70 132.5q0 57 -34 94t-88 55.5t-119.5 32.5t-131 31t-119.5 43t-88 78t-34 127z" />
<glyph unicode="&#x456;" horiz-adv-x="477" d="M186 0v973h105v-973h-105zM186 1212v172h105v-172h-105z" />
<glyph unicode="&#x457;" horiz-adv-x="477" d="M14 1223v170h105v-170h-105zM186 0v973h105v-973h-105zM360 1223v170h105v-170h-105z" />
<glyph unicode="&#x458;" horiz-adv-x="477" d="M-31 -279q59 -32 115 -32q45 0 73.5 26t28.5 84v1174h105v-1174q0 -111 -53.5 -162t-143.5 -51q-65 0 -125 29v106zM186 1212v172h105v-172h-105z" />
<glyph unicode="&#x459;" horiz-adv-x="1548" d="M0 -27v101q37 12 66 28t51 40t37.5 48t26 63t16.5 74t9 91.5t4 106t1 126.5v322h612v-383h283q395 0 395 -295t-395 -295h-387v874h-408v-223q0 -91 -2.5 -156.5t-10 -135t-21.5 -118.5t-37 -96t-55.5 -78.5t-78.5 -56t-106 -37.5zM823 100h285q140 0 213.5 49.5 t73.5 145.5t-73.5 145t-213.5 49h-285v-389z" />
<glyph unicode="&#x45a;" horiz-adv-x="1587" d="M186 0v973h105v-383h461v383h104v-383h287q395 0 395 -295t-395 -295h-391v489h-461v-489h-105zM856 100h289q142 0 215.5 49.5t73.5 145.5t-73.5 145t-215.5 49h-289v-389z" />
<glyph unicode="&#x45b;" horiz-adv-x="1157" d="M29 1198v92h157v164h105v-164h418v-92h-418v-319q149 118 330 118q160 0 262 -94.5t102 -263.5v-639h-104v633q0 129 -74 195.5t-195 66.5q-87 0 -170.5 -34t-150.5 -95v-766h-105v1198h-157z" />
<glyph unicode="&#x45c;" horiz-adv-x="974" d="M184 0v973h105v-545l528 545h133l-399 -414l416 -559h-125l-367 483l-186 -190v-293h-105zM471 1145l172 309h127l-205 -309h-94z" />
<glyph unicode="&#x45d;" horiz-adv-x="1177" d="M186 0v973h105v-817l596 817h104v-973h-104v813l-596 -813h-105zM379 1454h127l172 -309h-94z" />
<glyph unicode="&#x45e;" horiz-adv-x="929" d="M6 973h111l344 -846l350 846h111l-408 -977q-77 -185 -165.5 -281t-244.5 -131v107q111 28 181 106.5t123 212.5zM188 1440h88q23 -180 189 -180q165 0 188 180h88q-9 -127 -81.5 -205t-194.5 -78q-123 0 -195.5 78t-81.5 205z" />
<glyph unicode="&#x45f;" horiz-adv-x="1095" d="M184 0v973h105v-873h518v873h104v-973h-315l-4 -285h-88l-6 285h-314z" />
<glyph unicode="&#x462;" horiz-adv-x="1251" d="M6 1151v102h232v201h116v-201h428v-102h-428v-315h273q239 0 371 -108.5t132 -309.5q0 -197 -130.5 -307.5t-372.5 -110.5h-389v1151h-232zM354 100h273q182 0 283.5 81.5t101.5 236.5t-101 236t-284 81h-273v-635z" />
<glyph unicode="&#x463;" horiz-adv-x="1079" d="M0 874v99h252v309h104v-309h353v-99h-353v-284h279q395 0 395 -295t-395 -295h-383v874h-252zM356 100h281q287 0 287 195q0 194 -287 194h-281v-389z" />
<glyph unicode="&#x472;" horiz-adv-x="1675" d="M131 692q0 325 193.5 521t513.5 196q319 0 512.5 -196t193.5 -521t-193.5 -521t-512.5 -196q-320 0 -513.5 196t-193.5 521zM250 672q6 -274 164.5 -434t423.5 -160q264 0 421.5 160t163.5 434h-1173zM254 772h1167q-25 249 -179.5 392t-403.5 143q-250 0 -405.5 -143.5 t-178.5 -391.5z" />
<glyph unicode="&#x473;" horiz-adv-x="1212" d="M111 485q0 228 138 370t357 142t357.5 -142t138.5 -370t-138.5 -369t-357.5 -141t-357 141t-138 369zM217 463q6 -181 112.5 -283t276.5 -102t275.5 101.5t111.5 283.5h-776zM221 559h768q-20 158 -123 247t-260 89t-260 -89t-125 -247z" />
<glyph unicode="&#x474;" horiz-adv-x="1288" d="M0 1384h119l493 -1249l414 1041q25 63 47 102.5t52 71t69.5 45.5t93.5 14v-100q-62 0 -96 -41.5t-74 -143.5l-450 -1124h-119z" />
<glyph unicode="&#x475;" horiz-adv-x="995" d="M8 973h115l346 -852l268 643q26 66 45.5 103t49 70t68.5 46.5t95 13.5v-102q-65 0 -96.5 -37t-75.5 -139l-307 -719h-106z" />
<glyph unicode="&#x490;" horiz-adv-x="1028" d="M233 0v1384h654l8 287h90v-387h-637v-1284h-115z" />
<glyph unicode="&#x491;" horiz-adv-x="864" d="M184 0v973h488l8 287h84v-386h-475v-874h-105z" />
<glyph unicode="&#x2000;" horiz-adv-x="930" />
<glyph unicode="&#x2001;" horiz-adv-x="1860" />
<glyph unicode="&#x2002;" horiz-adv-x="930" />
<glyph unicode="&#x2003;" horiz-adv-x="1860" />
<glyph unicode="&#x2004;" horiz-adv-x="620" />
<glyph unicode="&#x2005;" horiz-adv-x="465" />
<glyph unicode="&#x2006;" horiz-adv-x="310" />
<glyph unicode="&#x2007;" horiz-adv-x="310" />
<glyph unicode="&#x2008;" horiz-adv-x="232" />
<glyph unicode="&#x2009;" horiz-adv-x="372" />
<glyph unicode="&#x200a;" horiz-adv-x="103" />
<glyph unicode="&#x2010;" horiz-adv-x="796" d="M166 543v110h467v-110h-467z" />
<glyph unicode="&#x2011;" horiz-adv-x="796" d="M166 543v110h467v-110h-467z" />
<glyph unicode="&#x2012;" horiz-adv-x="796" d="M166 543v110h467v-110h-467z" />
<glyph unicode="&#x2013;" horiz-adv-x="1208" d="M166 543v110h876v-110h-876z" />
<glyph unicode="&#x2014;" horiz-adv-x="2082" d="M166 545v108h1753v-108h-1753z" />
<glyph unicode="&#x2018;" horiz-adv-x="503" d="M127 1030q0 111 49.5 210.5t151.5 168.5l57 -72q-156 -114 -156 -303q0 -66 23 -139h-107q-18 61 -18 135z" />
<glyph unicode="&#x2019;" horiz-adv-x="503" d="M119 942q155 113 155 303q0 69 -22 139h106q19 -65 19 -135q0 -111 -49.5 -210.5t-151.5 -168.5z" />
<glyph unicode="&#x201a;" horiz-adv-x="503" d="M119 -215q155 113 155 303q0 69 -22 139h106q19 -65 19 -135q0 -111 -49.5 -210.5t-151.5 -168.5z" />
<glyph unicode="&#x201c;" horiz-adv-x="808" d="M127 1030q0 111 49.5 210.5t151.5 168.5l57 -72q-156 -114 -156 -303q0 -66 23 -139h-107q-18 61 -18 135zM432 1030q0 111 49.5 210.5t151.5 168.5l57 -72q-155 -113 -155 -303q0 -69 22 -139h-106q-19 65 -19 135z" />
<glyph unicode="&#x201d;" horiz-adv-x="808" d="M119 942q155 113 155 303q0 69 -22 139h106q19 -65 19 -135q0 -111 -49.5 -210.5t-151.5 -168.5zM424 942q156 114 156 303q0 66 -23 139h107q18 -62 18 -135q0 -111 -49.5 -210.5t-151.5 -168.5z" />
<glyph unicode="&#x201e;" horiz-adv-x="808" d="M119 -215q155 113 155 303q0 69 -22 139h106q19 -65 19 -135q0 -111 -49.5 -210.5t-151.5 -168.5zM424 -215q156 114 156 303q0 66 -23 139h107q18 -61 18 -135q0 -111 -49.5 -210.5t-151.5 -168.5z" />
<glyph unicode="&#x2022;" horiz-adv-x="561" d="M123 659q0 78 44.5 126.5t113.5 48.5t112 -48.5t43 -126.5t-43 -126t-112 -48t-113.5 48t-44.5 126z" />
<glyph unicode="&#x2026;" horiz-adv-x="1513" d="M182 0v137h140v-137h-140zM688 0v137h139v-137h-139zM1192 0v137h139v-137h-139z" />
<glyph unicode="&#x202f;" horiz-adv-x="372" />
<glyph unicode="&#x2039;" horiz-adv-x="573" d="M78 508l301 407h117l-281 -407l281 -408h-117z" />
<glyph unicode="&#x203a;" horiz-adv-x="573" d="M78 100l280 408l-280 407h117l301 -407l-301 -408h-117z" />
<glyph unicode="&#x205f;" horiz-adv-x="465" />
<glyph unicode="&#x20ac;" d="M55 823l23 92h158q52 246 200.5 370t362.5 124q154 0 266 -53v-109q-130 60 -266 60q-174 0 -292 -97t-153 -295h627l-20 -92h-621q-8 -55 -8 -131q0 -32 4 -94h573l-22 -94h-537q41 -210 166.5 -318t296.5 -108q138 0 260 61v-110q-114 -54 -264 -54q-103 0 -195.5 31.5 t-171 94t-133.5 166t-76 237.5h-176l23 94h141q-4 62 -4 94q0 70 6 131h-168z" />
<glyph unicode="&#x2122;" horiz-adv-x="1581" d="M53 1307v77h533v-77h-221v-490h-89v490h-223zM766 817v567h121l198 -366l199 366h123v-567h-88v461l-191 -352h-84l-192 352v-461h-86z" />
<glyph unicode="&#x25fc;" horiz-adv-x="972" d="M0 0v973h973v-973h-973z" />
</font>
</defs>
</svg>
